<?xml version="1.0" encoding="UTF-8"?>
<svg width="43px" height="57px" viewBox="0 0 43 57" version="1.1" xmlns="http://www.w3.org/2000/svg" xmlns:xlink="http://www.w3.org/1999/xlink">
    <!-- Generator: sketchtool 55.2 (78181) - https://sketchapp.com -->
    <title>F97DBE64-5A4D-4442-A0AF-F7AD5DB69A42</title>
    <desc>Created with sketchtool.</desc>
    <g id="D---Recipe-Detail" stroke="none" stroke-width="1" fill="none" fill-rule="evenodd">
        <g id="D---Recipe-Detail---Icons" transform="translate(-447.000000, -793.000000)" fill="#DA291C" fill-rule="nonzero">
            <g id="•-Recipe-Numbers" transform="translate(0.000000, 750.000000)">
                <g id="Icon-/-Cook-Time" transform="translate(447.000000, 43.000000)">
                    <path d="M20.1,5.62413545 L20.1,2.19 C20.0586778,1.74064987 20.2750686,1.30658468 20.6587811,1.06912345 C21.0424935,0.831662219 21.5275065,0.831662219 21.9112189,1.06912345 C22.2949314,1.30658468 22.5113222,1.74064987 22.47,2.19 L22.47,5.62574016 C28.9913685,5.99311053 35.2582333,9.34753019 39.105,15.235 C45.5335945,25.0739528 42.7689528,38.2614055 32.93,44.69 C29.4843611,46.9529232 25.4522867,48.1590696 21.33,48.16 C19.848049,48.1595617 18.3701405,48.0054035 16.92,47.7 C8.49764804,45.9323787 1.96904478,39.2658996 0.377801166,30.8084507 C-1.21344245,22.3510018 2.44595665,13.7676806 9.65,9.06 C12.8904768,6.94273085 16.4941741,5.82267599 20.1,5.62413545 Z M21.2696811,7.99983327 C21.2631208,7.99988547 21.2565604,7.99994105 21.25,8 C11.3092781,8.01261467 3.07550569,15.7197595 2.40682697,25.6379741 C1.73814824,35.5561887 8.86289063,44.2987933 18.71196,45.6456211 C28.5610293,46.9924489 37.7713562,40.4836113 39.79,30.75 C41.9284603,20.5335612 35.3847389,10.5165651 25.17,8.37 C23.9009134,8.11643586 22.609427,7.99231942 21.3153897,7.99952417 C21.3069375,7.99977273 21.2984738,7.99993155 21.29,8.00000006 C21.2832208,8.00000221 21.2764476,7.99994652 21.2696811,7.99983327 Z M35.92,57 L6.73,57 C4.94335906,57 3.23004002,56.2895779 1.96763234,55.0252944 C0.705224657,53.7610109 -0.00265474137,52.046639 -7.44012608e-06,50.26 L0.05,39 C0.0473332107,38.6826633 0.17152958,38.3774068 0.394987568,38.152071 C0.618445557,37.9267352 0.922652101,37.8 1.24,37.8 C1.5573479,37.8 1.86155444,37.9267352 2.08501243,38.152071 C2.30847042,38.3774068 2.43266679,38.6826633 2.43,39 L2.43,50.28 C2.43551388,52.6785325 4.38146117,54.6200063 6.78,54.62 L35.98,54.62 C38.3824387,54.62 40.33,52.6724387 40.33,50.27 L40.2,39 C40.1999769,38.3466667 40.7266897,37.8154902 41.38,37.81 C42.0372189,37.81 42.57,38.3427811 42.57,39 L42.64,50.28 C42.6344928,53.98907 39.62907,56.9944928 35.92,57 Z M21.32,43.59 C20.6627811,43.59 20.13,43.0572189 20.13,42.4 L20.13,40 C20.0886778,39.5506499 20.3050686,39.1165847 20.6887811,38.8791234 C21.0724935,38.6416622 21.5575065,38.6416622 21.9412189,38.8791234 C22.3249314,39.1165847 22.5413222,39.5506499 22.5,40 L22.5,42.41 C22.4945651,43.0594315 21.9694315,43.5845651 21.32,43.59 Z M36.82,28.06 L34.41,28.06 C33.7975877,28.0036826 33.3289725,27.4899963 33.3289725,26.875 C33.3289725,26.2600037 33.7975877,25.7463174 34.41,25.69 L36.82,25.69 C37.2693501,25.6486778 37.7034153,25.8650686 37.9408766,26.2487811 C38.1783378,26.6324935 38.1783378,27.1175065 37.9408766,27.5012189 C37.7034153,27.8849314 37.2693501,28.1013222 36.82,28.06 Z M8.17,28.06 L5.76,28.06 C5.31064987,28.1013222 4.87658468,27.8849314 4.63912345,27.5012189 C4.40166222,27.1175065 4.40166222,26.6324935 4.63912345,26.2487811 C4.87658468,25.8650686 5.31064987,25.6486778 5.76,25.69 L8.17,25.69 C8.78241228,25.7463174 9.25102753,26.2600037 9.25102753,26.875 C9.25102753,27.4899963 8.78241228,28.0036826 8.17,28.06 Z M32.43,38.8500028 C32.0995879,38.8507245 31.7840079,38.712885 31.56,38.47 L29.91,36.71 C29.5322147,36.2244935 29.5867472,35.5310713 30.0357818,35.110588 C30.4848164,34.6901047 31.1803224,34.6811788 31.64,35.09 L33.29,36.85 C33.6119898,37.1965474 33.6981432,37.700903 33.5094481,38.1346849 C33.3207529,38.5684668 32.8930455,38.849293 32.42,38.8500028 L32.43,38.8500028 Z M30.73,19 C30.2461331,18.9949462 29.8135086,18.6973984 29.6356892,18.2473618 C29.4578699,17.7973252 29.5702692,17.2844265 29.92,16.95 L31.68,15.3 C31.9640509,14.9232561 32.4438601,14.7499156 32.9031108,14.8581271 C33.3623614,14.9663386 33.7143048,15.3356619 33.800271,15.7995915 C33.8862372,16.2635211 33.6899879,16.7344245 33.3,17 L31.54,18.65 C31.3254216,18.8670259 31.0351024,18.9924725 30.73,19 Z M11.77,19.0000028 C11.4395879,19.0007245 11.1240079,18.862885 10.9,18.62 L9.26,16.88 C8.92590571,16.5778493 8.79105736,16.1129522 8.9116153,15.6789247 C9.03217325,15.2448973 9.38746996,14.9161457 9.82953486,14.8295854 C10.2715998,14.743025 10.7246486,14.9134952 11,15.27 L12.64,17 C12.9619898,17.3465474 13.0481432,17.850903 12.8594481,18.2846849 C12.6707529,18.7184668 12.2430455,18.999293 11.77,19.0000028 Z M10.13,38.8500028 C9.6569545,38.849293 9.22924706,38.5684668 9.04055195,38.1346849 C8.85185684,37.700903 8.93801016,37.1965474 9.26,36.85 L10.91,35.09 C11.3643802,34.645602 12.0877774,34.6367062 12.5529483,35.0697963 C13.0181191,35.5028864 13.0608514,36.2250752 12.65,36.71 L11,38.47 C10.7759921,38.712885 10.4604121,38.8507245 10.13,38.8500028 Z M21.29,35.69 C19.5851625,35.7489536 17.9679075,34.9346713 17,33.53 C13.16,27.88 18.89,12.91 19.56,11.22 C19.7969131,10.4407747 20.5155555,9.90814496 21.33,9.90814496 C22.1444445,9.90814496 22.8630869,10.4407747 23.1,11.22 C23.77,12.91 29.5,27.89 25.66,33.53 C24.6767335,34.9594064 23.0227604,35.7769309 21.29,35.69 Z M21.29,13.24 C18.99,19.48 16.69,28.9 18.93,32.24 C19.4574137,33.0122671 20.3576999,33.4433363 21.29,33.37 C22.2223001,33.4433363 23.1225863,33.0122671 23.65,32.24 C25.89,28.9 23.59,19.48 21.29,13.24 Z" id="Combined-Shape"></path>
                </g>
            </g>
        </g>
    </g>
</svg>