<?xml version="1.0" encoding="utf-8"?>
<!-- Generator: Adobe Illustrator 23.0.1, SVG Export Plug-In . SVG Version: 6.00 Build 0)  -->
<svg version="1.1" id="Layer_1" xmlns="http://www.w3.org/2000/svg" xmlns:xlink="http://www.w3.org/1999/xlink" x="0px" y="0px"
	 viewBox="0 0 49 50" style="enable-background:new 0 0 49 50;" xml:space="preserve">
<style type="text/css">
	.st0{fill-rule:evenodd;clip-rule:evenodd;fill:#0A0A0A;}
	.st1{filter:url(#Adobe_OpacityMaskFilter);}
	.st2{fill-rule:evenodd;clip-rule:evenodd;fill:#FFFFFF;}
	.st3{mask:url(#mask-2_1_);fill-rule:evenodd;clip-rule:evenodd;fill:#0A0A0A;}
	.st4{filter:url(#Adobe_OpacityMaskFilter_1_);}
	.st5{mask:url(#mask-2_2_);fill-rule:evenodd;clip-rule:evenodd;fill:#0A0A0A;}
	.st6{filter:url(#Adobe_OpacityMaskFilter_2_);}
	.st7{mask:url(#mask-2_3_);fill-rule:evenodd;clip-rule:evenodd;fill:#0A0A0A;}
	.st8{filter:url(#Adobe_OpacityMaskFilter_3_);}
	.st9{mask:url(#mask-2_4_);fill-rule:evenodd;clip-rule:evenodd;fill:#0A0A0A;}
	.st10{filter:url(#Adobe_OpacityMaskFilter_4_);}
	.st11{mask:url(#mask-2_5_);fill-rule:evenodd;clip-rule:evenodd;fill:#0A0A0A;}
	.st12{filter:url(#Adobe_OpacityMaskFilter_5_);}
	.st13{mask:url(#mask-2_6_);fill-rule:evenodd;clip-rule:evenodd;fill:#0A0A0A;}
	.st14{filter:url(#Adobe_OpacityMaskFilter_6_);}
	.st15{mask:url(#mask-2_7_);fill-rule:evenodd;clip-rule:evenodd;fill:#0A0A0A;}
	.st16{filter:url(#Adobe_OpacityMaskFilter_7_);}
	.st17{mask:url(#mask-2_8_);fill-rule:evenodd;clip-rule:evenodd;fill:#0A0A0A;}
	.st18{filter:url(#Adobe_OpacityMaskFilter_8_);}
	.st19{mask:url(#mask-2_9_);fill-rule:evenodd;clip-rule:evenodd;fill:#0A0A0A;}
	.st20{filter:url(#Adobe_OpacityMaskFilter_9_);}
	.st21{mask:url(#mask-2_10_);fill-rule:evenodd;clip-rule:evenodd;fill:#0A0A0A;}
	.st22{filter:url(#Adobe_OpacityMaskFilter_10_);}
	.st23{mask:url(#mask-2_11_);fill-rule:evenodd;clip-rule:evenodd;fill:#0A0A0A;}
	.st24{filter:url(#Adobe_OpacityMaskFilter_11_);}
	.st25{mask:url(#mask-2_12_);fill-rule:evenodd;clip-rule:evenodd;fill:#0A0A0A;}
	.st26{filter:url(#Adobe_OpacityMaskFilter_12_);}
	.st27{mask:url(#mask-2_13_);fill-rule:evenodd;clip-rule:evenodd;fill:#0A0A0A;}
	.st28{filter:url(#Adobe_OpacityMaskFilter_13_);}
	.st29{mask:url(#mask-2_14_);fill-rule:evenodd;clip-rule:evenodd;fill:#0A0A0A;}
	.st30{filter:url(#Adobe_OpacityMaskFilter_14_);}
	.st31{mask:url(#mask-2_15_);fill-rule:evenodd;clip-rule:evenodd;fill:#0A0A0A;}
	.st32{filter:url(#Adobe_OpacityMaskFilter_15_);}
	.st33{mask:url(#mask-2_16_);fill-rule:evenodd;clip-rule:evenodd;fill:#0A0A0A;}
	.st34{filter:url(#Adobe_OpacityMaskFilter_16_);}
	.st35{mask:url(#mask-2_17_);fill-rule:evenodd;clip-rule:evenodd;fill:#0A0A0A;}
	.st36{filter:url(#Adobe_OpacityMaskFilter_17_);}
	.st37{mask:url(#mask-2_18_);fill-rule:evenodd;clip-rule:evenodd;fill:#0A0A0A;}
	.st38{filter:url(#Adobe_OpacityMaskFilter_18_);}
	.st39{mask:url(#mask-2_19_);fill-rule:evenodd;clip-rule:evenodd;fill:#0A0A0A;}
</style>
<title>gluten-free</title>
<desc>Created with Sketch.</desc>
<g id="STYLES">
	<g id="Icons" transform="translate(-331.000000, -350.000000)">
		<g id="gluten-free" transform="translate(331.000000, 350.000000)">
			<path id="Fill-1" class="st0" d="M9.9,1.9C9.5,1.7,9,1.5,8.5,1.5c-1.2,0-1.9,0.7-1.9,1.8s0.8,1.8,1.9,1.8c0.5,0,1-0.1,1.4-0.3
				l0.1,1.3C9.5,6.3,9,6.4,8.4,6.4c-2.1,0-3.3-1.1-3.3-3c0-1.8,1.2-3,3.2-3c0.6,0,1.2,0.1,1.7,0.3L9.9,1.9z"/>
			<path id="Fill-3" class="st0" d="M12.9,2.8c-0.5,0-0.8,0.3-0.9,0.9h1.7C13.7,3.1,13.3,2.8,12.9,2.8z M15,4.6h-3
				c0.1,0.5,0.5,0.9,1.2,0.9c0.5,0,1-0.1,1.4-0.4v1c-0.5,0.2-1,0.3-1.5,0.3c-1.6,0-2.5-0.9-2.5-2.3c0-1.3,0.9-2.2,2.2-2.2
				S15,2.8,15,4.2V4.6z"/>
			<path id="Fill-5" class="st0" d="M18.8,3.2c-0.1-0.1-0.3-0.1-0.5-0.1c-0.7,0-1,0.4-1,1.3v1.8h-1.5V2h1.3v0.8
				c0.3-0.6,0.7-0.9,1.3-0.9c0.1,0,0.3,0,0.4,0.1L18.8,3.2z"/>
			<path id="Fill-7" class="st0" d="M21.5,2h1v1.1h-1v1.5c0,0.6,0.2,0.9,0.7,0.9c0.1,0,0.2,0,0.4-0.1l0,1c-0.3,0.1-0.6,0.1-0.9,0.1
				c-1.2,0-1.6-0.6-1.6-1.8V3.1h-0.8V2h0.9v-1l1.4-0.5V2z"/>
			<g id="Clip-10">
			</g>
			<defs>
				<filter id="Adobe_OpacityMaskFilter" filterUnits="userSpaceOnUse" x="23.4" y="0.1" width="1.5" height="6.2">
					<feColorMatrix  type="matrix" values="1 0 0 0 0  0 1 0 0 0  0 0 1 0 0  0 0 0 1 0"/>
				</filter>
			</defs>
			<mask maskUnits="userSpaceOnUse" x="23.4" y="0.1" width="1.5" height="6.2" id="mask-2_1_">
				<g class="st1">
					<polygon id="path-1_1_" class="st2" points="0,50 48.6,50 48.6,0 0,0 					"/>
				</g>
			</mask>
			<path id="Fill-9" class="st3" d="M23.4,6.3h1.5V2h-1.5V6.3z M23.4,1.3h1.5V0.1h-1.5V1.3z"/>
			<defs>
				<filter id="Adobe_OpacityMaskFilter_1_" filterUnits="userSpaceOnUse" x="25.5" y="0" width="3.4" height="6.3">
					<feColorMatrix  type="matrix" values="1 0 0 0 0  0 1 0 0 0  0 0 1 0 0  0 0 0 1 0"/>
				</filter>
			</defs>
			<mask maskUnits="userSpaceOnUse" x="25.5" y="0" width="3.4" height="6.3" id="mask-2_2_">
				<g class="st4">
					<polygon id="path-1_2_" class="st2" points="0,50 48.6,50 48.6,0 0,0 					"/>
				</g>
			</mask>
			<path id="Fill-11" class="st5" d="M28.8,1.1C28.7,1,28.6,1,28.5,1c-0.4,0-0.6,0.2-0.6,0.8V2h1v1.1h-1v3.2h-1.5V3.1h-0.9V2h0.9
				V1.6C26.4,0.6,27,0,28.1,0c0.3,0,0.6,0,0.8,0.1L28.8,1.1z"/>
			<defs>
				<filter id="Adobe_OpacityMaskFilter_2_" filterUnits="userSpaceOnUse" x="29.6" y="0.1" width="1.5" height="6.2">
					<feColorMatrix  type="matrix" values="1 0 0 0 0  0 1 0 0 0  0 0 1 0 0  0 0 0 1 0"/>
				</filter>
			</defs>
			<mask maskUnits="userSpaceOnUse" x="29.6" y="0.1" width="1.5" height="6.2" id="mask-2_3_">
				<g class="st6">
					<polygon id="path-1_3_" class="st2" points="0,50 48.6,50 48.6,0 0,0 					"/>
				</g>
			</mask>
			<path id="Fill-12" class="st7" d="M29.6,6.3H31V2h-1.5V6.3z M29.6,1.3H31V0.1h-1.5V1.3z"/>
			<defs>
				<filter id="Adobe_OpacityMaskFilter_3_" filterUnits="userSpaceOnUse" x="31.9" y="1.9" width="4.4" height="4.5">
					<feColorMatrix  type="matrix" values="1 0 0 0 0  0 1 0 0 0  0 0 1 0 0  0 0 0 1 0"/>
				</filter>
			</defs>
			<mask maskUnits="userSpaceOnUse" x="31.9" y="1.9" width="4.4" height="4.5" id="mask-2_4_">
				<g class="st8">
					<polygon id="path-1_4_" class="st2" points="0,50 48.6,50 48.6,0 0,0 					"/>
				</g>
			</mask>
			<path id="Fill-13" class="st9" d="M34.1,2.8c-0.5,0-0.8,0.3-0.9,0.9H35C34.9,3.1,34.6,2.8,34.1,2.8z M36.3,4.6h-3
				c0.1,0.5,0.5,0.9,1.2,0.9c0.5,0,1-0.1,1.4-0.4v1c-0.5,0.2-1,0.3-1.5,0.3c-1.6,0-2.5-0.9-2.5-2.3c0-1.3,0.9-2.2,2.2-2.2
				s2.2,0.8,2.2,2.3V4.6z"/>
			<defs>
				<filter id="Adobe_OpacityMaskFilter_4_" filterUnits="userSpaceOnUse" x="36.9" y="0.1" width="4.7" height="6.3">
					<feColorMatrix  type="matrix" values="1 0 0 0 0  0 1 0 0 0  0 0 1 0 0  0 0 0 1 0"/>
				</filter>
			</defs>
			<mask maskUnits="userSpaceOnUse" x="36.9" y="0.1" width="4.7" height="6.3" id="mask-2_5_">
				<g class="st10">
					<polygon id="path-1_5_" class="st2" points="0,50 48.6,50 48.6,0 0,0 					"/>
				</g>
			</mask>
			<path id="Fill-14" class="st11" d="M38.4,4.1c0,0.7,0.4,1.1,0.9,1.1s0.9-0.4,0.9-1.1c0-0.7-0.4-1.1-0.9-1.1
				C38.7,3,38.4,3.4,38.4,4.1z M41.6,0.1v6.2h-1.3V5.4C40,6,39.4,6.4,38.8,6.4c-1.1,0-1.9-0.9-1.9-2.3s0.7-2.2,1.9-2.2
				c0.6,0,1.1,0.2,1.4,0.7V0.1H41.6z"/>
			<defs>
				<filter id="Adobe_OpacityMaskFilter_5_" filterUnits="userSpaceOnUse" x="0" y="44" width="5.4" height="6">
					<feColorMatrix  type="matrix" values="1 0 0 0 0  0 1 0 0 0  0 0 1 0 0  0 0 0 1 0"/>
				</filter>
			</defs>
			<mask maskUnits="userSpaceOnUse" x="0" y="44" width="5.4" height="6" id="mask-2_6_">
				<g class="st12">
					<polygon id="path-1_6_" class="st2" points="0,50 48.6,50 48.6,0 0,0 					"/>
				</g>
			</mask>
			<path id="Fill-15" class="st13" d="M5.1,45.5c-0.5-0.3-1-0.4-1.5-0.4c-1.3,0-2,0.7-2,1.9c0,1.2,0.7,1.9,1.8,1.9
				c0.2,0,0.4,0,0.6-0.1v-1.2H3.1v-1.1h2.3v3.2C4.7,49.9,4.1,50,3.4,50C1.2,50,0,49,0,47C0,45.1,1.2,44,3.4,44
				c0.6,0,1.3,0.1,1.9,0.3L5.1,45.5z"/>
			<defs>
				<filter id="Adobe_OpacityMaskFilter_6_" filterUnits="userSpaceOnUse" x="6.5" y="43.7" width="1.5" height="6.2">
					<feColorMatrix  type="matrix" values="1 0 0 0 0  0 1 0 0 0  0 0 1 0 0  0 0 0 1 0"/>
				</filter>
			</defs>
			<mask maskUnits="userSpaceOnUse" x="6.5" y="43.7" width="1.5" height="6.2" id="mask-2_7_">
				<g class="st14">
					<polygon id="path-1_7_" class="st2" points="0,50 48.6,50 48.6,0 0,0 					"/>
				</g>
			</mask>
			<polygon id="Fill-16" class="st15" points="6.5,49.9 7.9,49.9 7.9,43.7 6.5,43.7 			"/>
			<defs>
				<filter id="Adobe_OpacityMaskFilter_7_" filterUnits="userSpaceOnUse" x="8.9" y="45.6" width="4.5" height="4.3">
					<feColorMatrix  type="matrix" values="1 0 0 0 0  0 1 0 0 0  0 0 1 0 0  0 0 0 1 0"/>
				</filter>
			</defs>
			<mask maskUnits="userSpaceOnUse" x="8.9" y="45.6" width="4.5" height="4.3" id="mask-2_8_">
				<g class="st16">
					<polygon id="path-1_8_" class="st2" points="0,50 48.6,50 48.6,0 0,0 					"/>
				</g>
			</mask>
			<path id="Fill-17" class="st17" d="M10.4,45.6v2.1c0,0.7,0.2,1,0.7,1c0.5,0,0.8-0.4,0.8-1.3v-1.8h1.5v4.3h-1.3v-0.8
				c-0.3,0.6-0.9,0.9-1.5,0.9c-1,0-1.6-0.6-1.6-1.9v-2.5L10.4,45.6z"/>
			<defs>
				<filter id="Adobe_OpacityMaskFilter_8_" filterUnits="userSpaceOnUse" x="14.1" y="44.2" width="3.3" height="5.8">
					<feColorMatrix  type="matrix" values="1 0 0 0 0  0 1 0 0 0  0 0 1 0 0  0 0 0 1 0"/>
				</filter>
			</defs>
			<mask maskUnits="userSpaceOnUse" x="14.1" y="44.2" width="3.3" height="5.8" id="mask-2_9_">
				<g class="st18">
					<polygon id="path-1_9_" class="st2" points="0,50 48.6,50 48.6,0 0,0 					"/>
				</g>
			</mask>
			<path id="Fill-18" class="st19" d="M16.4,45.6h1v1.1h-1v1.5c0,0.6,0.2,0.9,0.7,0.9c0.1,0,0.2,0,0.4-0.1l0,1
				C17.2,50,16.9,50,16.6,50c-1.2,0-1.6-0.6-1.6-1.8v-1.5h-0.8v-1.1H15v-1l1.4-0.5V45.6z"/>
			<defs>
				<filter id="Adobe_OpacityMaskFilter_9_" filterUnits="userSpaceOnUse" x="18" y="45.5" width="4.4" height="4.5">
					<feColorMatrix  type="matrix" values="1 0 0 0 0  0 1 0 0 0  0 0 1 0 0  0 0 0 1 0"/>
				</filter>
			</defs>
			<mask maskUnits="userSpaceOnUse" x="18" y="45.5" width="4.4" height="4.5" id="mask-2_10_">
				<g class="st20">
					<polygon id="path-1_10_" class="st2" points="0,50 48.6,50 48.6,0 0,0 					"/>
				</g>
			</mask>
			<path id="Fill-19" class="st21" d="M20.2,46.4c-0.5,0-0.8,0.3-0.9,0.9h1.7C21,46.7,20.7,46.4,20.2,46.4L20.2,46.4z M22.4,48.2h-3
				c0.1,0.5,0.5,0.9,1.2,0.9c0.5,0,1-0.1,1.4-0.4v1c-0.5,0.2-1,0.3-1.5,0.3c-1.6,0-2.5-0.9-2.5-2.3c0-1.3,0.9-2.2,2.2-2.2
				c1.4,0,2.2,0.8,2.2,2.3L22.4,48.2z"/>
			<defs>
				<filter id="Adobe_OpacityMaskFilter_10_" filterUnits="userSpaceOnUse" x="23.2" y="45.5" width="4.5" height="4.4">
					<feColorMatrix  type="matrix" values="1 0 0 0 0  0 1 0 0 0  0 0 1 0 0  0 0 0 1 0"/>
				</filter>
			</defs>
			<mask maskUnits="userSpaceOnUse" x="23.2" y="45.5" width="4.5" height="4.4" id="mask-2_11_">
				<g class="st22">
					<polygon id="path-1_11_" class="st2" points="0,50 48.6,50 48.6,0 0,0 					"/>
				</g>
			</mask>
			<path id="Fill-20" class="st23" d="M27.6,49.9h-1.5v-2.2c0-0.7-0.2-1-0.7-1c-0.5,0-0.8,0.4-0.8,1.1v2h-1.5v-4.2h1.3v0.8
				c0.3-0.6,0.9-0.9,1.5-0.9c1,0,1.6,0.6,1.6,1.9L27.6,49.9z"/>
			<defs>
				<filter id="Adobe_OpacityMaskFilter_11_" filterUnits="userSpaceOnUse" x="28.4" y="46.9" width="2.2" height="1.1">
					<feColorMatrix  type="matrix" values="1 0 0 0 0  0 1 0 0 0  0 0 1 0 0  0 0 0 1 0"/>
				</filter>
			</defs>
			<mask maskUnits="userSpaceOnUse" x="28.4" y="46.9" width="2.2" height="1.1" id="mask-2_12_">
				<g class="st24">
					<polygon id="path-1_12_" class="st2" points="0,50 48.6,50 48.6,0 0,0 					"/>
				</g>
			</mask>
			<polygon id="Fill-21" class="st25" points="28.4,48 30.6,48 30.6,46.9 28.4,46.9 			"/>
			<defs>
				<filter id="Adobe_OpacityMaskFilter_12_" filterUnits="userSpaceOnUse" x="31.5" y="44.1" width="3.8" height="5.7">
					<feColorMatrix  type="matrix" values="1 0 0 0 0  0 1 0 0 0  0 0 1 0 0  0 0 0 1 0"/>
				</filter>
			</defs>
			<mask maskUnits="userSpaceOnUse" x="31.5" y="44.1" width="3.8" height="5.7" id="mask-2_13_">
				<g class="st26">
					<polygon id="path-1_13_" class="st2" points="0,50 48.6,50 48.6,0 0,0 					"/>
				</g>
			</mask>
			<polygon id="Fill-22" class="st27" points="35.2,44.1 35.2,45.2 33,45.2 33,46.4 35.1,46.4 35.1,47.5 33,47.5 33,49.9 31.5,49.9 
				31.5,44.1 			"/>
			<defs>
				<filter id="Adobe_OpacityMaskFilter_13_" filterUnits="userSpaceOnUse" x="35.9" y="45.5" width="3" height="4.4">
					<feColorMatrix  type="matrix" values="1 0 0 0 0  0 1 0 0 0  0 0 1 0 0  0 0 0 1 0"/>
				</filter>
			</defs>
			<mask maskUnits="userSpaceOnUse" x="35.9" y="45.5" width="3" height="4.4" id="mask-2_14_">
				<g class="st28">
					<polygon id="path-1_14_" class="st2" points="0,50 48.6,50 48.6,0 0,0 					"/>
				</g>
			</mask>
			<path id="Fill-23" class="st29" d="M38.9,46.8c-0.1-0.1-0.3-0.1-0.5-0.1c-0.7,0-1,0.4-1,1.3v1.8h-1.5v-4.3h1.3v0.8
				c0.3-0.6,0.7-0.9,1.3-0.9c0.1,0,0.3,0,0.4,0.1L38.9,46.8z"/>
			<defs>
				<filter id="Adobe_OpacityMaskFilter_14_" filterUnits="userSpaceOnUse" x="39.3" y="45.5" width="4.4" height="4.5">
					<feColorMatrix  type="matrix" values="1 0 0 0 0  0 1 0 0 0  0 0 1 0 0  0 0 0 1 0"/>
				</filter>
			</defs>
			<mask maskUnits="userSpaceOnUse" x="39.3" y="45.5" width="4.4" height="4.5" id="mask-2_15_">
				<g class="st30">
					<polygon id="path-1_15_" class="st2" points="0,50 48.6,50 48.6,0 0,0 					"/>
				</g>
			</mask>
			<path id="Fill-24" class="st31" d="M41.5,46.4c-0.5,0-0.8,0.3-0.9,0.9h1.7C42.3,46.7,42,46.4,41.5,46.4z M43.7,48.2h-3
				c0.1,0.5,0.5,0.9,1.2,0.9c0.5,0,1-0.1,1.4-0.4v1c-0.5,0.2-1,0.3-1.5,0.3c-1.6,0-2.5-0.9-2.5-2.3c0-1.3,0.9-2.2,2.2-2.2
				c1.4,0,2.2,0.8,2.2,2.3L43.7,48.2z"/>
			<defs>
				<filter id="Adobe_OpacityMaskFilter_15_" filterUnits="userSpaceOnUse" x="44.2" y="45.5" width="4.4" height="4.5">
					<feColorMatrix  type="matrix" values="1 0 0 0 0  0 1 0 0 0  0 0 1 0 0  0 0 0 1 0"/>
				</filter>
			</defs>
			<mask maskUnits="userSpaceOnUse" x="44.2" y="45.5" width="4.4" height="4.5" id="mask-2_16_">
				<g class="st32">
					<polygon id="path-1_16_" class="st2" points="0,50 48.6,50 48.6,0 0,0 					"/>
				</g>
			</mask>
			<path id="Fill-25" class="st33" d="M46.5,46.4c-0.5,0-0.8,0.3-0.9,0.9h1.7C47.3,46.7,46.9,46.4,46.5,46.4z M48.6,48.2h-3
				c0.1,0.5,0.5,0.9,1.2,0.9c0.5,0,1-0.1,1.4-0.4v1c-0.5,0.2-1,0.3-1.5,0.3c-1.6,0-2.5-0.9-2.5-2.3c0-1.3,0.9-2.2,2.2-2.2
				s2.2,0.8,2.2,2.3V48.2z"/>
			<defs>
				<filter id="Adobe_OpacityMaskFilter_16_" filterUnits="userSpaceOnUse" x="6.7" y="8.5" width="34.3" height="34.3">
					<feColorMatrix  type="matrix" values="1 0 0 0 0  0 1 0 0 0  0 0 1 0 0  0 0 0 1 0"/>
				</filter>
			</defs>
			<mask maskUnits="userSpaceOnUse" x="6.7" y="8.5" width="34.3" height="34.3" id="mask-2_17_">
				<g class="st34">
					<polygon id="path-1_17_" class="st2" points="0,50 48.6,50 48.6,0 0,0 					"/>
				</g>
			</mask>
			<path id="Fill-26" class="st35" d="M23.8,39.9c-7.8,0-14.2-6.4-14.2-14.2c0-7.8,6.4-14.2,14.2-14.2c7.8,0,14.2,6.3,14.2,14.2v0
				C38,33.5,31.6,39.9,23.8,39.9L23.8,39.9z M23.8,8.5c-9.5,0-17.2,7.7-17.2,17.2s7.7,17.2,17.2,17.2c9.5,0,17.2-7.7,17.2-17.2
				S33.3,8.5,23.8,8.5z"/>
			<defs>
				<filter id="Adobe_OpacityMaskFilter_17_" filterUnits="userSpaceOnUse" x="14" y="20.1" width="9.9" height="11.1">
					<feColorMatrix  type="matrix" values="1 0 0 0 0  0 1 0 0 0  0 0 1 0 0  0 0 0 1 0"/>
				</filter>
			</defs>
			<mask maskUnits="userSpaceOnUse" x="14" y="20.1" width="9.9" height="11.1" id="mask-2_18_">
				<g class="st36">
					<polygon id="path-1_18_" class="st2" points="0,50 48.6,50 48.6,0 0,0 					"/>
				</g>
			</mask>
			<path id="Fill-27" class="st37" d="M23.4,22.8c-0.9-0.5-1.8-0.7-2.8-0.7c-2.3,0-3.7,1.4-3.7,3.6c0,2.1,1.3,3.5,3.3,3.5
				c0.4,0,0.7,0,1.1-0.1v-2.2h-1.6v-2h4.2v5.9c-1.2,0.3-2.4,0.5-3.6,0.5c-4.1,0-6.3-1.9-6.3-5.4s2.3-5.6,6.2-5.6
				c1.2,0,2.3,0.2,3.5,0.5L23.4,22.8z"/>
			<defs>
				<filter id="Adobe_OpacityMaskFilter_18_" filterUnits="userSpaceOnUse" x="25.9" y="20.4" width="7" height="10.6">
					<feColorMatrix  type="matrix" values="1 0 0 0 0  0 1 0 0 0  0 0 1 0 0  0 0 0 1 0"/>
				</filter>
			</defs>
			<mask maskUnits="userSpaceOnUse" x="25.9" y="20.4" width="7" height="10.6" id="mask-2_19_">
				<g class="st38">
					<polygon id="path-1_19_" class="st2" points="0,50 48.6,50 48.6,0 0,0 					"/>
				</g>
			</mask>
			<polygon id="Fill-28" class="st39" points="32.8,20.4 32.8,22.4 28.7,22.4 28.7,24.7 32.6,24.7 32.6,26.7 28.7,26.7 28.7,31 
				25.9,31 25.9,20.4 			"/>
		</g>
	</g>
</g>
</svg>
