<?xml version="1.0" encoding="utf-8"?>
<!-- Generator: Adobe Illustrator 23.0.1, SVG Export Plug-In . SVG Version: 6.00 Build 0)  -->
<svg version="1.1" id="Layer_1" xmlns="http://www.w3.org/2000/svg" xmlns:xlink="http://www.w3.org/1999/xlink" x="0px" y="0px"
	 viewBox="0 0 43 50" style="enable-background:new 0 0 43 50;" xml:space="preserve">
<style type="text/css">
	.st0{filter:url(#Adobe_OpacityMaskFilter);}
	.st1{fill-rule:evenodd;clip-rule:evenodd;fill:#FFFFFF;}
	.st2{mask:url(#mask-2_1_);fill-rule:evenodd;clip-rule:evenodd;fill:#0A0A0A;}
	.st3{filter:url(#Adobe_OpacityMaskFilter_1_);}
	.st4{mask:url(#mask-4_1_);fill-rule:evenodd;clip-rule:evenodd;fill:#0A0A0A;}
	.st5{fill-rule:evenodd;clip-rule:evenodd;fill:#0A0A0A;}
	.st6{filter:url(#Adobe_OpacityMaskFilter_2_);}
	.st7{mask:url(#mask-6_1_);fill-rule:evenodd;clip-rule:evenodd;fill:#0A0A0A;}
	.st8{filter:url(#Adobe_OpacityMaskFilter_3_);}
	.st9{mask:url(#mask-6_2_);fill-rule:evenodd;clip-rule:evenodd;fill:#0A0A0A;}
	.st10{filter:url(#Adobe_OpacityMaskFilter_4_);}
	.st11{mask:url(#mask-6_3_);fill-rule:evenodd;clip-rule:evenodd;fill:#0A0A0A;}
	.st12{filter:url(#Adobe_OpacityMaskFilter_5_);}
	.st13{mask:url(#mask-6_4_);fill-rule:evenodd;clip-rule:evenodd;fill:#0A0A0A;}
	.st14{filter:url(#Adobe_OpacityMaskFilter_6_);}
	.st15{mask:url(#mask-6_5_);fill-rule:evenodd;clip-rule:evenodd;fill:#0A0A0A;}
	.st16{filter:url(#Adobe_OpacityMaskFilter_7_);}
	.st17{mask:url(#mask-6_6_);fill-rule:evenodd;clip-rule:evenodd;fill:#0A0A0A;}
	.st18{filter:url(#Adobe_OpacityMaskFilter_8_);}
	.st19{mask:url(#mask-6_7_);fill-rule:evenodd;clip-rule:evenodd;fill:#0A0A0A;}
	.st20{filter:url(#Adobe_OpacityMaskFilter_9_);}
	.st21{mask:url(#mask-6_8_);fill-rule:evenodd;clip-rule:evenodd;fill:#0A0A0A;}
	.st22{filter:url(#Adobe_OpacityMaskFilter_10_);}
	.st23{mask:url(#mask-6_9_);fill-rule:evenodd;clip-rule:evenodd;fill:#0A0A0A;}
	.st24{filter:url(#Adobe_OpacityMaskFilter_11_);}
	.st25{mask:url(#mask-6_10_);fill-rule:evenodd;clip-rule:evenodd;fill:#0A0A0A;}
	.st26{filter:url(#Adobe_OpacityMaskFilter_12_);}
	.st27{mask:url(#mask-6_11_);fill-rule:evenodd;clip-rule:evenodd;fill:#0A0A0A;}
	.st28{filter:url(#Adobe_OpacityMaskFilter_13_);}
	.st29{mask:url(#mask-6_12_);fill-rule:evenodd;clip-rule:evenodd;fill:#0A0A0A;}
	.st30{filter:url(#Adobe_OpacityMaskFilter_14_);}
	.st31{mask:url(#mask-6_13_);fill-rule:evenodd;clip-rule:evenodd;fill:#0A0A0A;}
</style>
<title>no artificial colors</title>
<desc>Created with Sketch.</desc>
<g id="STYLES">
	<g id="Icons" transform="translate(-242.000000, -350.000000)">
		<g id="no-artificial-colors" transform="translate(242.000000, 350.000000)">
			<g id="Group-3" transform="translate(3.000000, 0.000000)">
				<g id="Clip-2">
				</g>
				<defs>
					<filter id="Adobe_OpacityMaskFilter" filterUnits="userSpaceOnUse" x="0.1" y="0" width="36.4" height="36.4">
						<feColorMatrix  type="matrix" values="1 0 0 0 0  0 1 0 0 0  0 0 1 0 0  0 0 0 1 0"/>
					</filter>
				</defs>
				<mask maskUnits="userSpaceOnUse" x="0.1" y="0" width="36.4" height="36.4" id="mask-2_1_">
					<g class="st0">
						<polygon id="path-1_1_" class="st1" points="0.1,0 36.5,0 36.5,36.4 0.1,36.4 						"/>
					</g>
				</mask>
				<path id="Fill-1" class="st2" d="M18.3,33.9c-3.9,0-7.4-1.4-10.1-3.7l4.6-4.6c0,0.2,0,0.5,0,0.7c1,4.6,3,4.7,5.5,4
					c2.4-0.7,1.3-5.3,1.9-6.8c0.6-1.5,2.3-1,2.3-1s1.8,0.6,2.8,0.6c3.5-0.5,2.9-4.8,2.3-6.3c-0.6-1.5-2.1-1-3.6-1.1
					c-0.4,0-0.7-0.2-0.9-0.4l7.2-7.2c2.3,2.7,3.7,6.3,3.7,10.1C34,26.9,26.9,33.9,18.3,33.9 M2.6,18.2c0-8.6,7-15.7,15.7-15.7
					c3.9,0,7.4,1.4,10.1,3.7l-4.9,4.9c0.4-1.1,0.9-2.5,0.8-3.7c-0.2-1.9-2.9-1.7-3.6-1.2c-0.7,0.5-1.5,2.5-1.5,2.5s-0.2,1.7-1.8,0.1
					c-2.2-2.1-5.2-1.5-5.2,1.9c0,3.4-0.4,2.3-2.8,5.3c-2.4,3,1.2,4,2.7,4.5c0.6,0.2,0.8,0.6,0.9,1.2l-6.6,6.6
					C4,25.6,2.6,22.1,2.6,18.2 M18.3,0C8.2,0,0.1,8.2,0.1,18.2s8.2,18.2,18.2,18.2s18.2-8.2,18.2-18.2S28.3,0,18.3,0"/>
			</g>
			<g id="Group-6" transform="translate(0.000000, 39.000000)">
				<g id="Clip-5">
				</g>
				<defs>
					<filter id="Adobe_OpacityMaskFilter_1_" filterUnits="userSpaceOnUse" x="0" y="0.6" width="3.7" height="4.2">
						<feColorMatrix  type="matrix" values="1 0 0 0 0  0 1 0 0 0  0 0 1 0 0  0 0 0 1 0"/>
					</filter>
				</defs>
				<mask maskUnits="userSpaceOnUse" x="0" y="0.6" width="3.7" height="4.2" id="mask-4_1_">
					<g class="st3">
						<polygon id="path-3_1_" class="st1" points="0,0.6 3.7,0.6 3.7,4.8 0,4.8 						"/>
					</g>
				</mask>
				<polygon id="Fill-4" class="st4" points="0,4.8 0,0.6 1,0.6 2.6,2.7 2.6,2.7 2.6,0.6 3.7,0.6 3.7,4.8 2.8,4.8 1.2,2.6 1.2,2.6 
					1.2,4.8 				"/>
			</g>
			<path id="Fill-7" class="st5" d="M5.5,41.7c0,0.7,0.3,1.2,0.9,1.2c0.5,0,0.9-0.5,0.9-1.2c0-0.7-0.3-1.2-0.9-1.2
				C5.8,40.5,5.5,40.9,5.5,41.7 M8.4,41.7c0,1.3-0.8,2.2-2.1,2.2c-1.3,0-2.1-0.8-2.1-2.2s0.8-2.2,2.1-2.2
				C7.6,39.5,8.4,40.3,8.4,41.7"/>
			<path id="Fill-9" class="st5" d="M11.5,42.1h0.8L12,40.5h0L11.5,42.1z M12.6,42.9h-1.3l-0.2,0.8H9.8l1.4-4.2h1.5l1.4,4.2h-1.3
				L12.6,42.9z"/>
			<path id="Fill-11" class="st5" d="M15.7,41.5h0.5c0.3,0,0.6-0.2,0.6-0.5c0-0.3-0.2-0.5-0.6-0.5h-0.5V41.5z M15.7,43.8h-1.2v-4.2
				h1.9c1.1,0,1.7,0.5,1.7,1.4c0,0.5-0.2,1-0.7,1.2l0.8,1.6h-1.4l-0.7-1.4h-0.4V43.8z"/>
			<polygon id="Fill-13" class="st5" points="19.5,43.8 19.5,40.6 18.4,40.6 18.4,39.6 21.8,39.6 21.8,40.6 20.7,40.6 20.7,43.8 			
				"/>
			<g id="Clip-16">
			</g>
			<defs>
				<filter id="Adobe_OpacityMaskFilter_2_" filterUnits="userSpaceOnUse" x="22.2" y="39.6" width="1.2" height="4.2">
					<feColorMatrix  type="matrix" values="1 0 0 0 0  0 1 0 0 0  0 0 1 0 0  0 0 0 1 0"/>
				</filter>
			</defs>
			<mask maskUnits="userSpaceOnUse" x="22.2" y="39.6" width="1.2" height="4.2" id="mask-6_1_">
				<g class="st6">
					<polygon id="path-5_1_" class="st1" points="0,50 42.7,50 42.7,0 0,0 					"/>
				</g>
			</mask>
			<polygon id="Fill-15" class="st7" points="22.2,43.8 23.4,43.8 23.4,39.6 22.2,39.6 			"/>
			<defs>
				<filter id="Adobe_OpacityMaskFilter_3_" filterUnits="userSpaceOnUse" x="24" y="39.6" width="2.9" height="4.2">
					<feColorMatrix  type="matrix" values="1 0 0 0 0  0 1 0 0 0  0 0 1 0 0  0 0 0 1 0"/>
				</filter>
			</defs>
			<mask maskUnits="userSpaceOnUse" x="24" y="39.6" width="2.9" height="4.2" id="mask-6_2_">
				<g class="st8">
					<polygon id="path-5_2_" class="st1" points="0,50 42.7,50 42.7,0 0,0 					"/>
				</g>
			</mask>
			<polygon id="Fill-17" class="st9" points="24,43.8 24,39.6 27,39.6 27,40.6 25.3,40.6 25.3,41.4 26.8,41.4 26.8,42.3 25.3,42.3 
				25.3,43.8 			"/>
			<defs>
				<filter id="Adobe_OpacityMaskFilter_4_" filterUnits="userSpaceOnUse" x="27.4" y="39.6" width="1.2" height="4.2">
					<feColorMatrix  type="matrix" values="1 0 0 0 0  0 1 0 0 0  0 0 1 0 0  0 0 0 1 0"/>
				</filter>
			</defs>
			<mask maskUnits="userSpaceOnUse" x="27.4" y="39.6" width="1.2" height="4.2" id="mask-6_3_">
				<g class="st10">
					<polygon id="path-5_3_" class="st1" points="0,50 42.7,50 42.7,0 0,0 					"/>
				</g>
			</mask>
			<polygon id="Fill-18" class="st11" points="27.4,43.8 28.6,43.8 28.6,39.6 27.4,39.6 			"/>
			<defs>
				<filter id="Adobe_OpacityMaskFilter_5_" filterUnits="userSpaceOnUse" x="29.1" y="39.5" width="4" height="4.3">
					<feColorMatrix  type="matrix" values="1 0 0 0 0  0 1 0 0 0  0 0 1 0 0  0 0 0 1 0"/>
				</filter>
			</defs>
			<mask maskUnits="userSpaceOnUse" x="29.1" y="39.5" width="4" height="4.3" id="mask-6_4_">
				<g class="st12">
					<polygon id="path-5_4_" class="st1" points="0,50 42.7,50 42.7,0 0,0 					"/>
				</g>
			</mask>
			<path id="Fill-19" class="st13" d="M29.1,41.7c0-1.4,0.8-2.2,2.1-2.2c1.1,0,1.9,0.7,1.9,1.8h-1.2c0-0.5-0.3-0.8-0.8-0.8
				c-0.5,0-0.8,0.4-0.8,1.2c0,0.8,0.3,1.2,0.8,1.2c0.4,0,0.7-0.3,0.8-0.8h1.2c0,1-0.8,1.8-1.9,1.8C29.9,43.8,29.1,43,29.1,41.7"/>
			<defs>
				<filter id="Adobe_OpacityMaskFilter_6_" filterUnits="userSpaceOnUse" x="33.6" y="39.6" width="1.2" height="4.2">
					<feColorMatrix  type="matrix" values="1 0 0 0 0  0 1 0 0 0  0 0 1 0 0  0 0 0 1 0"/>
				</filter>
			</defs>
			<mask maskUnits="userSpaceOnUse" x="33.6" y="39.6" width="1.2" height="4.2" id="mask-6_5_">
				<g class="st14">
					<polygon id="path-5_5_" class="st1" points="0,50 42.7,50 42.7,0 0,0 					"/>
				</g>
			</mask>
			<polygon id="Fill-20" class="st15" points="33.6,43.8 34.8,43.8 34.8,39.6 33.6,39.6 			"/>
			<defs>
				<filter id="Adobe_OpacityMaskFilter_7_" filterUnits="userSpaceOnUse" x="35.2" y="39.6" width="4.3" height="4.2">
					<feColorMatrix  type="matrix" values="1 0 0 0 0  0 1 0 0 0  0 0 1 0 0  0 0 0 1 0"/>
				</filter>
			</defs>
			<mask maskUnits="userSpaceOnUse" x="35.2" y="39.6" width="4.3" height="4.2" id="mask-6_6_">
				<g class="st16">
					<polygon id="path-5_6_" class="st1" points="0,50 42.7,50 42.7,0 0,0 					"/>
				</g>
			</mask>
			<path id="Fill-21" class="st17" d="M36.9,42.1h0.8l-0.4-1.5h0L36.9,42.1z M37.9,42.9h-1.3l-0.2,0.8h-1.3l1.4-4.2h1.5l1.4,4.2
				h-1.3L37.9,42.9z"/>
			<defs>
				<filter id="Adobe_OpacityMaskFilter_8_" filterUnits="userSpaceOnUse" x="39.8" y="39.6" width="2.9" height="4.2">
					<feColorMatrix  type="matrix" values="1 0 0 0 0  0 1 0 0 0  0 0 1 0 0  0 0 0 1 0"/>
				</filter>
			</defs>
			<mask maskUnits="userSpaceOnUse" x="39.8" y="39.6" width="2.9" height="4.2" id="mask-6_7_">
				<g class="st18">
					<polygon id="path-5_7_" class="st1" points="0,50 42.7,50 42.7,0 0,0 					"/>
				</g>
			</mask>
			<polygon id="Fill-22" class="st19" points="42.7,43.8 39.8,43.8 39.8,39.6 41.1,39.6 41.1,42.8 42.7,42.8 			"/>
			<defs>
				<filter id="Adobe_OpacityMaskFilter_9_" filterUnits="userSpaceOnUse" x="9.1" y="45.7" width="4" height="4.3">
					<feColorMatrix  type="matrix" values="1 0 0 0 0  0 1 0 0 0  0 0 1 0 0  0 0 0 1 0"/>
				</filter>
			</defs>
			<mask maskUnits="userSpaceOnUse" x="9.1" y="45.7" width="4" height="4.3" id="mask-6_8_">
				<g class="st20">
					<polygon id="path-5_8_" class="st1" points="0,50 42.7,50 42.7,0 0,0 					"/>
				</g>
			</mask>
			<path id="Fill-23" class="st21" d="M9.1,47.8c0-1.4,0.8-2.2,2.1-2.2c1.1,0,1.9,0.7,1.9,1.8H12c0-0.5-0.3-0.8-0.8-0.8
				c-0.5,0-0.8,0.4-0.8,1.2c0,0.8,0.3,1.2,0.8,1.2c0.4,0,0.7-0.3,0.8-0.8h1.2c0,1-0.8,1.8-1.9,1.8C9.9,50,9.1,49.2,9.1,47.8"/>
			<defs>
				<filter id="Adobe_OpacityMaskFilter_10_" filterUnits="userSpaceOnUse" x="13.5" y="45.7" width="4.2" height="4.3">
					<feColorMatrix  type="matrix" values="1 0 0 0 0  0 1 0 0 0  0 0 1 0 0  0 0 0 1 0"/>
				</filter>
			</defs>
			<mask maskUnits="userSpaceOnUse" x="13.5" y="45.7" width="4.2" height="4.3" id="mask-6_9_">
				<g class="st22">
					<polygon id="path-5_9_" class="st1" points="0,50 42.7,50 42.7,0 0,0 					"/>
				</g>
			</mask>
			<path id="Fill-24" class="st23" d="M14.8,47.8c0,0.7,0.3,1.2,0.9,1.2c0.5,0,0.9-0.5,0.9-1.2c0-0.7-0.3-1.2-0.9-1.2
				C15.1,46.7,14.8,47.1,14.8,47.8 M17.7,47.8c0,1.3-0.8,2.2-2.1,2.2c-1.3,0-2.1-0.8-2.1-2.2c0-1.3,0.8-2.2,2.1-2.2
				C16.9,45.7,17.7,46.5,17.7,47.8"/>
			<defs>
				<filter id="Adobe_OpacityMaskFilter_11_" filterUnits="userSpaceOnUse" x="18.2" y="45.7" width="2.9" height="4.2">
					<feColorMatrix  type="matrix" values="1 0 0 0 0  0 1 0 0 0  0 0 1 0 0  0 0 0 1 0"/>
				</filter>
			</defs>
			<mask maskUnits="userSpaceOnUse" x="18.2" y="45.7" width="2.9" height="4.2" id="mask-6_10_">
				<g class="st24">
					<polygon id="path-5_10_" class="st1" points="0,50 42.7,50 42.7,0 0,0 					"/>
				</g>
			</mask>
			<polygon id="Fill-25" class="st25" points="21.1,49.9 18.2,49.9 18.2,45.7 19.4,45.7 19.4,49 21.1,49 			"/>
			<defs>
				<filter id="Adobe_OpacityMaskFilter_12_" filterUnits="userSpaceOnUse" x="21.2" y="45.7" width="4.2" height="4.3">
					<feColorMatrix  type="matrix" values="1 0 0 0 0  0 1 0 0 0  0 0 1 0 0  0 0 0 1 0"/>
				</filter>
			</defs>
			<mask maskUnits="userSpaceOnUse" x="21.2" y="45.7" width="4.2" height="4.3" id="mask-6_11_">
				<g class="st26">
					<polygon id="path-5_11_" class="st1" points="0,50 42.7,50 42.7,0 0,0 					"/>
				</g>
			</mask>
			<path id="Fill-26" class="st27" d="M22.5,47.8c0,0.7,0.3,1.2,0.9,1.2s0.9-0.5,0.9-1.2c0-0.7-0.3-1.2-0.9-1.2
				C22.8,46.7,22.5,47.1,22.5,47.8 M25.5,47.8c0,1.3-0.8,2.2-2.1,2.2c-1.3,0-2.1-0.8-2.1-2.2c0-1.3,0.8-2.2,2.1-2.2
				C24.6,45.7,25.5,46.5,25.5,47.8"/>
			<defs>
				<filter id="Adobe_OpacityMaskFilter_13_" filterUnits="userSpaceOnUse" x="25.9" y="45.7" width="3.7" height="4.2">
					<feColorMatrix  type="matrix" values="1 0 0 0 0  0 1 0 0 0  0 0 1 0 0  0 0 0 1 0"/>
				</filter>
			</defs>
			<mask maskUnits="userSpaceOnUse" x="25.9" y="45.7" width="3.7" height="4.2" id="mask-6_12_">
				<g class="st28">
					<polygon id="path-5_12_" class="st1" points="0,50 42.7,50 42.7,0 0,0 					"/>
				</g>
			</mask>
			<path id="Fill-27" class="st29" d="M27.2,47.7h0.5c0.3,0,0.6-0.2,0.6-0.5c0-0.3-0.2-0.5-0.6-0.5h-0.5V47.7z M27.2,49.9h-1.2v-4.2
				h1.9c1.1,0,1.7,0.5,1.7,1.4c0,0.5-0.2,1-0.7,1.2l0.8,1.6h-1.4l-0.7-1.4h-0.4V49.9z"/>
			<defs>
				<filter id="Adobe_OpacityMaskFilter_14_" filterUnits="userSpaceOnUse" x="29.9" y="45.7" width="3.6" height="4.3">
					<feColorMatrix  type="matrix" values="1 0 0 0 0  0 1 0 0 0  0 0 1 0 0  0 0 0 1 0"/>
				</filter>
			</defs>
			<mask maskUnits="userSpaceOnUse" x="29.9" y="45.7" width="3.6" height="4.3" id="mask-6_13_">
				<g class="st30">
					<polygon id="path-5_13_" class="st1" points="0,50 42.7,50 42.7,0 0,0 					"/>
				</g>
			</mask>
			<path id="Fill-28" class="st31" d="M31,48.7c0,0.2,0.3,0.4,0.7,0.4c0.4,0,0.6-0.1,0.6-0.4c0-0.2-0.2-0.3-0.6-0.4l-0.6-0.1
				c-0.8-0.1-1.2-0.6-1.2-1.2c0-0.8,0.7-1.4,1.7-1.4c1.1,0,1.7,0.5,1.7,1.3h-1.1c0-0.3-0.3-0.4-0.6-0.4c-0.3,0-0.5,0.1-0.5,0.3
				c0,0.2,0.2,0.3,0.6,0.4l0.6,0.1c0.8,0.1,1.2,0.5,1.2,1.2c0,0.9-0.7,1.4-1.8,1.4c-1.1,0-1.8-0.5-1.8-1.3H31z"/>
		</g>
	</g>
</g>
</svg>
