<?xml version="1.0" encoding="utf-8"?>
<!-- Generator: Adobe Illustrator 23.0.1, SVG Export Plug-In . SVG Version: 6.00 Build 0)  -->
<svg version="1.1" id="Layer_1" xmlns="http://www.w3.org/2000/svg" xmlns:xlink="http://www.w3.org/1999/xlink" x="0px" y="0px"
	 viewBox="0 0 65 28" style="enable-background:new 0 0 65 28;" xml:space="preserve">
<style type="text/css">
	.st0{filter:url(#Adobe_OpacityMaskFilter);}
	.st1{fill-rule:evenodd;clip-rule:evenodd;fill:#FFFFFF;}
	.st2{mask:url(#mask-2_1_);fill-rule:evenodd;clip-rule:evenodd;fill:#0A0A0A;}
</style>
<title>no artificial flavors</title>
<desc>Created with Sketch.</desc>
<g id="STYLES">
	<g id="Icons" transform="translate(-238.000000, -209.000000)">
		<g id="no-artificial-flavors" transform="translate(238.000000, 209.000000)">
			<g id="Clip-2">
			</g>
			<defs>
				<filter id="Adobe_OpacityMaskFilter" filterUnits="userSpaceOnUse" x="0" y="0" width="65" height="28">
					<feColorMatrix  type="matrix" values="1 0 0 0 0  0 1 0 0 0  0 0 1 0 0  0 0 0 1 0"/>
				</filter>
			</defs>
			<mask maskUnits="userSpaceOnUse" x="0" y="0" width="65" height="28" id="mask-2_1_">
				<g class="st0">
					<polygon id="path-1_1_" class="st1" points="0,0 65,0 65,28 0,28 					"/>
				</g>
			</mask>
			<path id="Fill-1" class="st2" d="M24.1,12.6L24.1,12.6l-0.6,1.9h1.1L24.1,12.6z M29.4,5.5c-0.7,0-1.2,0.6-1.2,1.5
				c0,0.9,0.5,1.5,1.2,1.5c0.7,0,1.2-0.6,1.2-1.5C30.6,6.1,30.1,5.5,29.4,5.5z M24.1,12.6L24.1,12.6l-0.6,1.9h1.1L24.1,12.6z
				 M29.4,5.5c-0.7,0-1.2,0.6-1.2,1.5c0,0.9,0.5,1.5,1.2,1.5c0.7,0,1.2-0.6,1.2-1.5C30.6,6.1,30.1,5.5,29.4,5.5z M24.1,12.6
				L24.1,12.6l-0.6,1.9h1.1L24.1,12.6z M29.1,12.5h-0.7v1.4h0.7c0.5,0,0.7-0.3,0.7-0.7C29.8,12.8,29.5,12.5,29.1,12.5z M29.4,5.5
				c-0.7,0-1.2,0.6-1.2,1.5c0,0.9,0.5,1.5,1.2,1.5c0.7,0,1.2-0.6,1.2-1.5C30.6,6.1,30.1,5.5,29.4,5.5z M24.1,12.6L24.1,12.6
				l-0.6,1.9h1.1L24.1,12.6z M29.4,5.5c-0.7,0-1.2,0.6-1.2,1.5c0,0.9,0.5,1.5,1.2,1.5c0.7,0,1.2-0.6,1.2-1.5
				C30.6,6.1,30.1,5.5,29.4,5.5z M29.1,12.5h-0.7v1.4h0.7c0.5,0,0.7-0.3,0.7-0.7C29.8,12.8,29.5,12.5,29.1,12.5z M24.1,12.6
				L24.1,12.6l-0.6,1.9h1.1L24.1,12.6z M29.1,12.5h-0.7v1.4h0.7c0.5,0,0.7-0.3,0.7-0.7C29.8,12.8,29.5,12.5,29.1,12.5z M29.4,5.5
				c-0.7,0-1.2,0.6-1.2,1.5c0,0.9,0.5,1.5,1.2,1.5c0.7,0,1.2-0.6,1.2-1.5C30.6,6.1,30.1,5.5,29.4,5.5z M24.1,12.6L24.1,12.6
				l-0.6,1.9h1.1L24.1,12.6z M29.4,5.5c-0.7,0-1.2,0.6-1.2,1.5c0,0.9,0.5,1.5,1.2,1.5c0.7,0,1.2-0.6,1.2-1.5
				C30.6,6.1,30.1,5.5,29.4,5.5z M29.1,12.5h-0.7v1.4h0.7c0.5,0,0.7-0.3,0.7-0.7C29.8,12.8,29.5,12.5,29.1,12.5z M24.1,12.6
				L24.1,12.6l-0.6,1.9h1.1L24.1,12.6z M29.1,12.5h-0.7v1.4h0.7c0.5,0,0.7-0.3,0.7-0.7C29.8,12.8,29.5,12.5,29.1,12.5z M29.4,5.5
				c-0.7,0-1.2,0.6-1.2,1.5c0,0.9,0.5,1.5,1.2,1.5c0.7,0,1.2-0.6,1.2-1.5C30.6,6.1,30.1,5.5,29.4,5.5z M24.1,12.6L24.1,12.6
				l-0.6,1.9h1.1L24.1,12.6z M29.4,5.5c-0.7,0-1.2,0.6-1.2,1.5c0,0.9,0.5,1.5,1.2,1.5c0.7,0,1.2-0.6,1.2-1.5
				C30.6,6.1,30.1,5.5,29.4,5.5z M29.1,12.5h-0.7v1.4h0.7c0.5,0,0.7-0.3,0.7-0.7C29.8,12.8,29.5,12.5,29.1,12.5z M24.1,12.6
				L24.1,12.6l-0.6,1.9h1.1L24.1,12.6z M29.1,12.5h-0.7v1.4h0.7c0.5,0,0.7-0.3,0.7-0.7C29.8,12.8,29.5,12.5,29.1,12.5z M29.4,5.5
				c-0.7,0-1.2,0.6-1.2,1.5c0,0.9,0.5,1.5,1.2,1.5c0.7,0,1.2-0.6,1.2-1.5C30.6,6.1,30.1,5.5,29.4,5.5z M53.4,12.6L53.4,12.6
				l-0.6,1.9h1.1L53.4,12.6z M53.4,12.6L53.4,12.6l-0.6,1.9h1.1L53.4,12.6z M24.1,12.6L24.1,12.6l-0.6,1.9h1.1L24.1,12.6z M29.4,5.5
				c-0.7,0-1.2,0.6-1.2,1.5c0,0.9,0.5,1.5,1.2,1.5c0.7,0,1.2-0.6,1.2-1.5C30.6,6.1,30.1,5.5,29.4,5.5z M29.1,12.5h-0.7v1.4h0.7
				c0.5,0,0.7-0.3,0.7-0.7C29.8,12.8,29.5,12.5,29.1,12.5z M24.1,12.6L24.1,12.6l-0.6,1.9h1.1L24.1,12.6z M29.1,12.5h-0.7v1.4h0.7
				c0.5,0,0.7-0.3,0.7-0.7C29.8,12.8,29.5,12.5,29.1,12.5z M29.4,5.5c-0.7,0-1.2,0.6-1.2,1.5c0,0.9,0.5,1.5,1.2,1.5
				c0.7,0,1.2-0.6,1.2-1.5C30.6,6.1,30.1,5.5,29.4,5.5z M53.4,12.6L53.4,12.6l-0.6,1.9h1.1L53.4,12.6z M53.4,12.6L53.4,12.6
				l-0.6,1.9h1.1L53.4,12.6z M24.1,12.6L24.1,12.6l-0.6,1.9h1.1L24.1,12.6z M29.4,5.5c-0.7,0-1.2,0.6-1.2,1.5c0,0.9,0.5,1.5,1.2,1.5
				c0.7,0,1.2-0.6,1.2-1.5C30.6,6.1,30.1,5.5,29.4,5.5z M29.1,12.5h-0.7v1.4h0.7c0.5,0,0.7-0.3,0.7-0.7
				C29.8,12.8,29.5,12.5,29.1,12.5z M24.1,12.6L24.1,12.6l-0.6,1.9h1.1L24.1,12.6z M29.1,12.5h-0.7v1.4h0.7c0.5,0,0.7-0.3,0.7-0.7
				C29.8,12.8,29.5,12.5,29.1,12.5z M29.4,5.5c-0.7,0-1.2,0.6-1.2,1.5c0,0.9,0.5,1.5,1.2,1.5c0.7,0,1.2-0.6,1.2-1.5
				C30.6,6.1,30.1,5.5,29.4,5.5z M41.5,19.5c-0.7,0-1.2,0.6-1.2,1.5c0,0.9,0.5,1.5,1.2,1.5c0.7,0,1.2-0.6,1.2-1.5
				C42.7,20,42.2,19.5,41.5,19.5z M46.6,19.5h-0.7v1.4h0.7c0.5,0,0.7-0.3,0.7-0.7C47.4,19.7,47.1,19.5,46.6,19.5z M53.4,12.6
				L53.4,12.6l-0.6,1.9h1.1L53.4,12.6z M53.4,12.6L53.4,12.6l-0.6,1.9h1.1L53.4,12.6z M46.6,19.5h-0.7v1.4h0.7
				c0.5,0,0.7-0.3,0.7-0.7C47.4,19.7,47.1,19.5,46.6,19.5z M41.5,19.5c-0.7,0-1.2,0.6-1.2,1.5c0,0.9,0.5,1.5,1.2,1.5
				c0.7,0,1.2-0.6,1.2-1.5C42.7,20,42.2,19.5,41.5,19.5z M24.1,12.6L24.1,12.6l-0.6,1.9h1.1L24.1,12.6z M29.4,5.5
				c-0.7,0-1.2,0.6-1.2,1.5c0,0.9,0.5,1.5,1.2,1.5c0.7,0,1.2-0.6,1.2-1.5C30.6,6.1,30.1,5.5,29.4,5.5z M29.1,12.5h-0.7v1.4h0.7
				c0.5,0,0.7-0.3,0.7-0.7C29.8,12.8,29.5,12.5,29.1,12.5z M24.1,12.6L24.1,12.6l-0.6,1.9h1.1L24.1,12.6z M29.1,12.5h-0.7v1.4h0.7
				c0.5,0,0.7-0.3,0.7-0.7C29.8,12.8,29.5,12.5,29.1,12.5z M29.4,5.5c-0.7,0-1.2,0.6-1.2,1.5c0,0.9,0.5,1.5,1.2,1.5
				c0.7,0,1.2-0.6,1.2-1.5C30.6,6.1,30.1,5.5,29.4,5.5z M32,19.6L32,19.6l-0.6,1.9h1.1L32,19.6z M41.5,19.5c-0.7,0-1.2,0.6-1.2,1.5
				c0,0.9,0.5,1.5,1.2,1.5c0.7,0,1.2-0.6,1.2-1.5C42.7,20,42.2,19.5,41.5,19.5z M46.6,19.5h-0.7v1.4h0.7c0.5,0,0.7-0.3,0.7-0.7
				C47.4,19.7,47.1,19.5,46.6,19.5z M53.4,12.6L53.4,12.6l-0.6,1.9h1.1L53.4,12.6z M53.4,12.6L53.4,12.6l-0.6,1.9h1.1L53.4,12.6z
				 M46.6,19.5h-0.7v1.4h0.7c0.5,0,0.7-0.3,0.7-0.7C47.4,19.7,47.1,19.5,46.6,19.5z M41.5,19.5c-0.7,0-1.2,0.6-1.2,1.5
				c0,0.9,0.5,1.5,1.2,1.5c0.7,0,1.2-0.6,1.2-1.5C42.7,20,42.2,19.5,41.5,19.5z M32,19.6L32,19.6l-0.6,1.9h1.1L32,19.6z M24.1,12.6
				L24.1,12.6l-0.6,1.9h1.1L24.1,12.6z M29.1,12.5h-0.7v1.4h0.7c0.5,0,0.7-0.3,0.7-0.7C29.8,12.8,29.5,12.5,29.1,12.5z M29.4,5.5
				c-0.7,0-1.2,0.6-1.2,1.5c0,0.9,0.5,1.5,1.2,1.5c0.7,0,1.2-0.6,1.2-1.5C30.6,6.1,30.1,5.5,29.4,5.5z M24.1,12.6L24.1,12.6
				l-0.6,1.9h1.1L24.1,12.6z M29.1,12.5h-0.7v1.4h0.7c0.5,0,0.7-0.3,0.7-0.7C29.8,12.8,29.5,12.5,29.1,12.5z M29.4,8.5
				c0.7,0,1.2-0.6,1.2-1.5c0-0.9-0.5-1.5-1.2-1.5c-0.7,0-1.2,0.6-1.2,1.5C28.2,8,28.7,8.5,29.4,8.5z M32,19.6l-0.5,1.9h1.1L32,19.6
				L32,19.6z M41.5,19.5c-0.7,0-1.2,0.6-1.2,1.5c0,0.9,0.5,1.5,1.2,1.5c0.7,0,1.2-0.6,1.2-1.5C42.7,20,42.2,19.5,41.5,19.5z
				 M46.6,19.5h-0.7v1.4h0.7c0.5,0,0.7-0.3,0.7-0.7C47.4,19.7,47.1,19.5,46.6,19.5z M53.4,12.6l-0.6,1.9h1.1L53.4,12.6L53.4,12.6z
				 M59.7,16.5h-3.3v-4.9h1.3v3.9h2.1V16.5z M54.5,16.5l-0.3-1.1h-1.6l-0.3,1.1H51l1.7-4.9h1.5l1.7,4.9H54.5z M51.2,23.5
				c-1.3,0-2-0.6-2.1-1.5h1.2c0,0.3,0.4,0.6,0.9,0.6c0.5,0,0.8-0.2,0.8-0.5c0-0.3-0.2-0.4-0.8-0.5l-0.6-0.1
				c-0.9-0.2-1.4-0.7-1.4-1.4c0-1,0.8-1.6,2-1.6c1.2,0,2,0.6,2,1.5H52c0-0.4-0.4-0.6-0.8-0.6c-0.4,0-0.7,0.2-0.7,0.5
				c0,0.3,0.2,0.4,0.7,0.5l0.7,0.1c1,0.2,1.4,0.6,1.4,1.4C53.3,22.9,52.5,23.5,51.2,23.5z M47.4,23.4l-0.9-1.7h-0.6v1.7h-1.3v-4.9
				h2.1c1.2,0,1.9,0.6,1.9,1.6c0,0.6-0.3,1.1-0.9,1.4l1,1.9H47.4z M43.9,14c0-1.6,0.9-2.5,2.4-2.5c1.3,0,2.2,0.8,2.2,2h-1.2
				c-0.1-0.6-0.5-1-1-1c-0.7,0-1.1,0.6-1.1,1.5c0,1,0.4,1.6,1.1,1.6c0.6,0,1-0.4,1-0.9h1.2c-0.1,1.2-1,1.9-2.3,1.9
				C44.9,16.5,43.9,15.6,43.9,14z M41.5,23.5c-1.5,0-2.5-1-2.5-2.5c0-1.6,1-2.5,2.5-2.5c1.5,0,2.5,1,2.5,2.5
				C44,22.5,43,23.5,41.5,23.5z M37.3,23.4h-1.6l-1.6-4.9h1.4l1,3.7h0l1-3.7h1.4L37.3,23.4z M33.1,23.4l-0.3-1.1h-1.6l-0.3,1.1h-1.3
				l1.7-4.9h1.5l1.7,4.9H33.1z M29.2,23.4h-3.3v-4.9h1.3v3.9h2.1V23.4z M25.4,19.5h-2.1v1.1h1.9v1h-1.9v1.8H22v-4.9h3.4V19.5z
				 M23.4,11.5h1.6l1.7,4.9h-1.3l-0.3-1.1h-1.6L23,16.5h-1.3L23.4,11.5z M15.2,19.3c-1.3,2.2-4,2.2-4,2.2s-2.7,0.1-4-2.2
				c-1.3-2.2-0.5-4,0.1-5.6c0.7-1.5,3.9-7.3,3.9-7.3s3.2,5.7,3.9,7.3C15.7,15.3,16.5,17.1,15.2,19.3z M22,4.6h1l2.1,2.9h0V4.6h1.2
				v4.9h-1l-2.1-2.9h0v2.9H22V4.6z M31.3,16.5h-1.4L29,14.7h-0.6v1.7h-1.3v-4.9h2.1c1.2,0,1.9,0.6,1.9,1.6c0,0.6-0.3,1.2-0.9,1.4
				L31.3,16.5z M29.4,4.5c1.5,0,2.5,1,2.5,2.5c0,1.6-0.9,2.5-2.5,2.5s-2.5-1-2.5-2.5C26.9,5.5,27.9,4.5,29.4,4.5z M31.5,12.5v-1h4v1
				h-1.4v3.9h-1.3v-3.9H31.5z M36.1,16.5h1.3v-4.9h-1.3V16.5z M38.1,11.5h3.4v1h-2.1v1.1h1.9v1h-1.9v1.8h-1.3V11.5z M42,16.5h1.3
				v-4.9H42V16.5z M49.2,16.5h1.3v-4.9h-1.3V16.5z M63,0H2C0.9,0,0,0.9,0,2v24c0,1.1,0.9,2,2,2h61c1.1,0,2-0.9,2-2V2
				C65,0.9,64.1,0,63,0z M29.4,5.5c-0.7,0-1.2,0.6-1.2,1.5c0,0.9,0.5,1.5,1.2,1.5c0.7,0,1.2-0.6,1.2-1.5C30.6,6.1,30.1,5.5,29.4,5.5
				z M29.1,12.5h-0.7v1.4h0.7c0.5,0,0.7-0.3,0.7-0.7C29.8,12.8,29.5,12.5,29.1,12.5z M24.1,12.6L24.1,12.6l-0.6,1.9h1.1L24.1,12.6z
				 M32,19.6L32,19.6l-0.6,1.9h1.1L32,19.6z M41.5,19.5c-0.7,0-1.2,0.6-1.2,1.5c0,0.9,0.5,1.5,1.2,1.5c0.7,0,1.2-0.6,1.2-1.5
				C42.7,20,42.2,19.5,41.5,19.5z M46.6,19.5h-0.7v1.4h0.7c0.5,0,0.7-0.3,0.7-0.7C47.4,19.7,47.1,19.5,46.6,19.5z M53.4,12.6
				L53.4,12.6l-0.6,1.9h1.1L53.4,12.6z M53.4,12.6L53.4,12.6l-0.6,1.9h1.1L53.4,12.6z M46.6,19.5h-0.7v1.4h0.7
				c0.5,0,0.7-0.3,0.7-0.7C47.4,19.7,47.1,19.5,46.6,19.5z M41.5,19.5c-0.7,0-1.2,0.6-1.2,1.5c0,0.9,0.5,1.5,1.2,1.5
				c0.7,0,1.2-0.6,1.2-1.5C42.7,20,42.2,19.5,41.5,19.5z M32,19.6L32,19.6l-0.6,1.9h1.1L32,19.6z M29.4,5.5c-0.7,0-1.2,0.6-1.2,1.5
				c0,0.9,0.5,1.5,1.2,1.5c0.7,0,1.2-0.6,1.2-1.5C30.6,6.1,30.1,5.5,29.4,5.5z M29.1,12.5h-0.7v1.4h0.7c0.5,0,0.7-0.3,0.7-0.7
				C29.8,12.8,29.5,12.5,29.1,12.5z M24.1,12.6L24.1,12.6l-0.6,1.9h1.1L24.1,12.6z M29.1,12.5h-0.7v1.4h0.7c0.5,0,0.7-0.3,0.7-0.7
				C29.8,12.8,29.5,12.5,29.1,12.5z M29.4,5.5c-0.7,0-1.2,0.6-1.2,1.5c0,0.9,0.5,1.5,1.2,1.5c0.7,0,1.2-0.6,1.2-1.5
				C30.6,6.1,30.1,5.5,29.4,5.5z M24.1,12.6L24.1,12.6l-0.6,1.9h1.1L24.1,12.6z M41.5,19.5c-0.7,0-1.2,0.6-1.2,1.5
				c0,0.9,0.5,1.5,1.2,1.5c0.7,0,1.2-0.6,1.2-1.5C42.7,20,42.2,19.5,41.5,19.5z M46.6,19.5h-0.7v1.4h0.7c0.5,0,0.7-0.3,0.7-0.7
				C47.4,19.7,47.1,19.5,46.6,19.5z M53.4,12.6L53.4,12.6l-0.6,1.9h1.1L53.4,12.6z M53.4,12.6L53.4,12.6l-0.6,1.9h1.1L53.4,12.6z
				 M46.6,19.5h-0.7v1.4h0.7c0.5,0,0.7-0.3,0.7-0.7C47.4,19.7,47.1,19.5,46.6,19.5z M41.5,19.5c-0.7,0-1.2,0.6-1.2,1.5
				c0,0.9,0.5,1.5,1.2,1.5c0.7,0,1.2-0.6,1.2-1.5C42.7,20,42.2,19.5,41.5,19.5z M29.4,5.5c-0.7,0-1.2,0.6-1.2,1.5
				c0,0.9,0.5,1.5,1.2,1.5c0.7,0,1.2-0.6,1.2-1.5C30.6,6.1,30.1,5.5,29.4,5.5z M29.1,12.5h-0.7v1.4h0.7c0.5,0,0.7-0.3,0.7-0.7
				C29.8,12.8,29.5,12.5,29.1,12.5z M24.1,12.6L24.1,12.6l-0.6,1.9h1.1L24.1,12.6z M29.1,12.5h-0.7v1.4h0.7c0.5,0,0.7-0.3,0.7-0.7
				C29.8,12.8,29.5,12.5,29.1,12.5z M29.4,5.5c-0.7,0-1.2,0.6-1.2,1.5c0,0.9,0.5,1.5,1.2,1.5c0.7,0,1.2-0.6,1.2-1.5
				C30.6,6.1,30.1,5.5,29.4,5.5z M24.1,12.6L24.1,12.6l-0.6,1.9h1.1L24.1,12.6z M46.6,19.5h-0.7v1.4h0.7c0.5,0,0.7-0.3,0.7-0.7
				C47.4,19.7,47.1,19.5,46.6,19.5z M53.4,12.6L53.4,12.6l-0.6,1.9h1.1L53.4,12.6z M53.4,12.6L53.4,12.6l-0.6,1.9h1.1L53.4,12.6z
				 M46.6,19.5h-0.7v1.4h0.7c0.5,0,0.7-0.3,0.7-0.7C47.4,19.7,47.1,19.5,46.6,19.5z M29.4,5.5c-0.7,0-1.2,0.6-1.2,1.5
				c0,0.9,0.5,1.5,1.2,1.5c0.7,0,1.2-0.6,1.2-1.5C30.6,6.1,30.1,5.5,29.4,5.5z M29.1,12.5h-0.7v1.4h0.7c0.5,0,0.7-0.3,0.7-0.7
				C29.8,12.8,29.5,12.5,29.1,12.5z M24.1,12.6L24.1,12.6l-0.6,1.9h1.1L24.1,12.6z M29.1,12.5h-0.7v1.4h0.7c0.5,0,0.7-0.3,0.7-0.7
				C29.8,12.8,29.5,12.5,29.1,12.5z M29.4,5.5c-0.7,0-1.2,0.6-1.2,1.5c0,0.9,0.5,1.5,1.2,1.5c0.7,0,1.2-0.6,1.2-1.5
				C30.6,6.1,30.1,5.5,29.4,5.5z M24.1,12.6L24.1,12.6l-0.6,1.9h1.1L24.1,12.6z M53.4,12.6L53.4,12.6l-0.6,1.9h1.1L53.4,12.6z
				 M53.4,12.6L53.4,12.6l-0.6,1.9h1.1L53.4,12.6z M29.4,5.5c-0.7,0-1.2,0.6-1.2,1.5c0,0.9,0.5,1.5,1.2,1.5c0.7,0,1.2-0.6,1.2-1.5
				C30.6,6.1,30.1,5.5,29.4,5.5z M29.1,12.5h-0.7v1.4h0.7c0.5,0,0.7-0.3,0.7-0.7C29.8,12.8,29.5,12.5,29.1,12.5z M24.1,12.6
				L24.1,12.6l-0.6,1.9h1.1L24.1,12.6z M29.1,12.5h-0.7v1.4h0.7c0.5,0,0.7-0.3,0.7-0.7C29.8,12.8,29.5,12.5,29.1,12.5z M29.4,5.5
				c-0.7,0-1.2,0.6-1.2,1.5c0,0.9,0.5,1.5,1.2,1.5c0.7,0,1.2-0.6,1.2-1.5C30.6,6.1,30.1,5.5,29.4,5.5z M24.1,12.6L24.1,12.6
				l-0.6,1.9h1.1L24.1,12.6z M29.4,5.5c-0.7,0-1.2,0.6-1.2,1.5c0,0.9,0.5,1.5,1.2,1.5c0.7,0,1.2-0.6,1.2-1.5
				C30.6,6.1,30.1,5.5,29.4,5.5z M29.1,12.5h-0.7v1.4h0.7c0.5,0,0.7-0.3,0.7-0.7C29.8,12.8,29.5,12.5,29.1,12.5z M24.1,12.6
				L24.1,12.6l-0.6,1.9h1.1L24.1,12.6z M29.1,12.5h-0.7v1.4h0.7c0.5,0,0.7-0.3,0.7-0.7C29.8,12.8,29.5,12.5,29.1,12.5z M29.4,5.5
				c-0.7,0-1.2,0.6-1.2,1.5c0,0.9,0.5,1.5,1.2,1.5c0.7,0,1.2-0.6,1.2-1.5C30.6,6.1,30.1,5.5,29.4,5.5z M24.1,12.6L24.1,12.6
				l-0.6,1.9h1.1L24.1,12.6z M29.4,5.5c-0.7,0-1.2,0.6-1.2,1.5c0,0.9,0.5,1.5,1.2,1.5c0.7,0,1.2-0.6,1.2-1.5
				C30.6,6.1,30.1,5.5,29.4,5.5z M29.1,12.5h-0.7v1.4h0.7c0.5,0,0.7-0.3,0.7-0.7C29.8,12.8,29.5,12.5,29.1,12.5z M24.1,12.6
				L24.1,12.6l-0.6,1.9h1.1L24.1,12.6z M29.1,12.5h-0.7v1.4h0.7c0.5,0,0.7-0.3,0.7-0.7C29.8,12.8,29.5,12.5,29.1,12.5z M29.4,5.5
				c-0.7,0-1.2,0.6-1.2,1.5c0,0.9,0.5,1.5,1.2,1.5c0.7,0,1.2-0.6,1.2-1.5C30.6,6.1,30.1,5.5,29.4,5.5z M24.1,12.6L24.1,12.6
				l-0.6,1.9h1.1L24.1,12.6z M29.4,5.5c-0.7,0-1.2,0.6-1.2,1.5c0,0.9,0.5,1.5,1.2,1.5c0.7,0,1.2-0.6,1.2-1.5
				C30.6,6.1,30.1,5.5,29.4,5.5z M29.1,12.5h-0.7v1.4h0.7c0.5,0,0.7-0.3,0.7-0.7C29.8,12.8,29.5,12.5,29.1,12.5z M24.1,12.6
				L24.1,12.6l-0.6,1.9h1.1L24.1,12.6z M29.1,12.5h-0.7v1.4h0.7c0.5,0,0.7-0.3,0.7-0.7C29.8,12.8,29.5,12.5,29.1,12.5z M29.4,5.5
				c-0.7,0-1.2,0.6-1.2,1.5c0,0.9,0.5,1.5,1.2,1.5c0.7,0,1.2-0.6,1.2-1.5C30.6,6.1,30.1,5.5,29.4,5.5z M24.1,12.6L24.1,12.6
				l-0.6,1.9h1.1L24.1,12.6z M29.4,5.5c-0.7,0-1.2,0.6-1.2,1.5c0,0.9,0.5,1.5,1.2,1.5c0.7,0,1.2-0.6,1.2-1.5
				C30.6,6.1,30.1,5.5,29.4,5.5z M29.1,12.5h-0.7v1.4h0.7c0.5,0,0.7-0.3,0.7-0.7C29.8,12.8,29.5,12.5,29.1,12.5z M24.1,12.6
				L24.1,12.6l-0.6,1.9h1.1L24.1,12.6z M29.4,5.5c-0.7,0-1.2,0.6-1.2,1.5c0,0.9,0.5,1.5,1.2,1.5c0.7,0,1.2-0.6,1.2-1.5
				C30.6,6.1,30.1,5.5,29.4,5.5z M29.4,5.5c-0.7,0-1.2,0.6-1.2,1.5c0,0.9,0.5,1.5,1.2,1.5c0.7,0,1.2-0.6,1.2-1.5
				C30.6,6.1,30.1,5.5,29.4,5.5z"/>
		</g>
	</g>
</g>
</svg>
