<?xml version="1.0" encoding="utf-8"?>
<!-- Generator: Adobe Illustrator 23.0.1, SVG Export Plug-In . SVG Version: 6.00 Build 0)  -->
<svg version="1.1" id="Layer_1" xmlns="http://www.w3.org/2000/svg" xmlns:xlink="http://www.w3.org/1999/xlink" x="0px" y="0px"
	 viewBox="0 0 45 50" style="enable-background:new 0 0 45 50;" xml:space="preserve">
<style type="text/css">
	.st0{filter:url(#Adobe_OpacityMaskFilter);}
	.st1{fill-rule:evenodd;clip-rule:evenodd;fill:#FFFFFF;}
	.st2{mask:url(#mask-2_1_);fill-rule:evenodd;clip-rule:evenodd;fill:#0A0A0A;}
	.st3{fill-rule:evenodd;clip-rule:evenodd;fill:#0A0A0A;}
</style>
<title>non gmo</title>
<desc>Created with Sketch.</desc>
<g id="STYLES">
	<g id="Icons" transform="translate(-332.000000, -270.000000)">
		<g id="non-gmo" transform="translate(332.000000, 270.000000)">
			<g id="Group-3" transform="translate(0.000000, 5.000000)">
				<g id="Clip-2">
				</g>
				<defs>
					<filter id="Adobe_OpacityMaskFilter" filterUnits="userSpaceOnUse" x="0" y="0" width="44.7" height="45">
						<feColorMatrix  type="matrix" values="1 0 0 0 0  0 1 0 0 0  0 0 1 0 0  0 0 0 1 0"/>
					</filter>
				</defs>
				<mask maskUnits="userSpaceOnUse" x="0" y="0" width="44.7" height="45" id="mask-2_1_">
					<g class="st0">
						<polygon id="path-1_1_" class="st1" points="0,0 44.7,0 44.7,45 0,45 						"/>
					</g>
				</mask>
				<path id="Fill-1" class="st2" d="M17,0C2.4,6.3,0.4,19,4.1,28.3c5.2,13,19.6,16,29.4,10.5c6.3-3.6,12-10,10.4-23.2
					c3.7,15.3-6.1,28.6-21.1,29.5C-5.2,44-7.8,6.5,17,0"/>
			</g>
			<path id="Fill-4" class="st3" d="M19.2,2.8c9.3-7.8,18.6,2,22.7,10.4c-9.1,3.6-19.4,2.3-22.8-8.2C25,4.9,30.6,6.2,36,9
				C31.7,4.7,25.9,3,19.2,2.8"/>
			<path id="Fill-6" class="st3" d="M12.3,37.6c-1,0-1.9-0.3-2.6-0.8c-0.7-0.6-1.1-1.2-1.1-2v-6.5c0-0.8,0.4-1.5,1.1-2
				c0.7-0.6,1.6-0.8,2.6-0.8c1,0,1.9,0.3,2.6,0.8c0.7,0.6,1.1,1.2,1.1,2l0,1.1h-2.4l0-1.1c0-0.3-0.1-0.5-0.4-0.7
				c-0.3-0.2-0.6-0.3-1-0.3c-0.4,0-0.7,0.1-1,0.3c-0.3,0.2-0.4,0.4-0.4,0.7v6.5c0,0.3,0.1,0.5,0.4,0.7c0.3,0.2,0.6,0.3,1,0.3
				c0.4,0,0.7-0.1,1-0.3c0.3-0.2,0.4-0.4,0.4-0.7l0.1-1.7h-1.3v-1.8h3.8L16,37.4l-1.2,0l-0.4-1C13.8,37.1,13.4,37.6,12.3,37.6"/>
			<polygon id="Fill-8" class="st3" points="20.4,37.5 18.1,37.5 18.1,25.5 21.4,25.5 23.6,34.1 25.7,25.5 28.9,25.5 28.9,37.5 
				26.5,37.5 26.5,29.9 24.5,37.5 22.6,37.5 20.4,30 			"/>
			<polygon id="Fill-10" class="st3" points="14.6,16.5 16.4,21.1 16.4,16.5 17.7,16.5 17.7,23.3 16.3,23.3 14.5,19 14.5,23.3 
				13.1,23.3 13.1,16.5 			"/>
			<polygon id="Fill-12" class="st3" points="25.5,16.5 27.2,21.1 27.2,16.5 28.6,16.5 28.6,23.3 27.1,23.3 25.3,19 25.3,23.3 
				24,23.3 24,16.5 			"/>
			<path id="Fill-14" class="st3" d="M20.9,16.5c0.6,0,1.1,0.2,1.5,0.5c0.4,0.3,0.6,0.7,0.6,1.1v3.7c0,0.5-0.2,0.8-0.6,1.2
				c-0.4,0.3-0.9,0.5-1.5,0.5c-0.6,0-1.1-0.2-1.5-0.5c-0.4-0.3-0.6-0.7-0.6-1.1v-3.7c0-0.5,0.2-0.8,0.6-1.2
				C19.8,16.6,20.3,16.5,20.9,16.5z M21.6,18.1c0-0.2-0.1-0.3-0.2-0.4c-0.1-0.1-0.3-0.2-0.5-0.2c-0.2,0-0.4,0.1-0.5,0.2
				c-0.1,0.1-0.2,0.3-0.2,0.4v3.7c0,0.2,0.1,0.3,0.2,0.4s0.3,0.2,0.5,0.2c0.2,0,0.4-0.1,0.5-0.2c0.1-0.1,0.2-0.3,0.2-0.4V18.1z"/>
			<path id="Fill-16" class="st3" d="M34.6,25.3c1,0,1.9,0.3,2.6,0.8c0.7,0.6,1.1,1.2,1.1,2v6.6c0,0.8-0.4,1.5-1.1,2
				c-0.7,0.6-1.6,0.8-2.6,0.8c-1,0-1.9-0.3-2.6-0.8c-0.7-0.6-1.1-1.2-1.1-2v-6.6c0-0.8,0.4-1.5,1.1-2C32.8,25.6,33.6,25.3,34.6,25.3
				z M35.9,28.1c0-0.3-0.1-0.5-0.4-0.7c-0.3-0.2-0.6-0.3-0.9-0.3s-0.7,0.1-0.9,0.3c-0.3,0.2-0.4,0.4-0.4,0.7v6.6
				c0,0.3,0.1,0.5,0.4,0.7c0.3,0.2,0.6,0.3,0.9,0.3s0.7-0.1,0.9-0.3c0.3-0.2,0.4-0.4,0.4-0.7V28.1z"/>
		</g>
	</g>
</g>
</svg>
