<?xml version="1.0" encoding="UTF-8"?>
<svg width="46px" height="54px" viewBox="0 0 46 54" version="1.1" xmlns="http://www.w3.org/2000/svg" xmlns:xlink="http://www.w3.org/1999/xlink">
    <!-- Generator: sketchtool 55.2 (78181) - https://sketchapp.com -->
    <title>BAEAC131-1E0C-49C8-8035-1C1BFDB56D8D</title>
    <desc>Created with sketchtool.</desc>
    <g id="D---Recipe-Detail" stroke="none" stroke-width="1" fill="none" fill-rule="evenodd">
        <g id="D---Recipe-Detail---Icons" transform="translate(-1048.000000, -794.000000)" stroke="#DA291C" stroke-width="2.5">
            <g id="•-Recipe-Numbers" transform="translate(0.000000, 750.000000)">
                <g id="Icon-/-Nutrition" transform="translate(1050.000000, 46.000000)">
                    <g id="recipe-overview-calories" transform="translate(0.000000, 12.000000)" fill-rule="nonzero">
                        <g id="Group-3">
                            <path d="M31.6935294,0.0416073842 C27.5,-2.83661983e-14 24.742779,0.941567052 21.4241176,2.05830009 C18.1054563,0.941567052 15,-2.83661983e-14 11.1547059,0.0416073842 C4.82485294,0.0416073842 0,6.61777926 0,13.8515683 C0,21.0853574 7.21514706,38.095722 15.0942647,38.095722 C17.1801115,37.9882802 19.2456026,37.6350612 21.2470588,37.0435345 C23.307484,37.6345538 25.4332873,37.9731946 27.5769118,38.0518808 C35.4560294,38.0518808 42.6711765,21.0853574 42.6711765,13.8077272 C42.6711765,6.53009697 38.0676471,0.0416073842 31.6935294,0.0416073842 Z" id="Path"></path>
                        </g>
                    </g>
                    <path d="M22.1428571,8 C21.3809524,2.66666667 23.6666667,0 29,0" id="Path-2" stroke-linecap="round"></path>
                </g>
            </g>
        </g>
    </g>
</svg>