<?xml version="1.0" encoding="UTF-8"?>
<svg width="35px" height="35px" viewBox="0 0 35 35" version="1.1" xmlns="http://www.w3.org/2000/svg" xmlns:xlink="http://www.w3.org/1999/xlink">
    <!-- Generator: Sketch 52.5 (67469) - http://www.bohemiancoding.com/sketch -->
    <title>Fill 16</title>
    <desc>Created with Sketch.</desc>
    <g id="D---Recipe-Landing" stroke="none" stroke-width="1" fill="none" fill-rule="evenodd">
        <g id="D---Recipe-Landing---SHARE" transform="translate(-789.000000, -1313.000000)" fill="#7F7F7F">
            <g id="Share-Pop-up" transform="translate(563.000000, 1195.000000)">
                <g id="components" transform="translate(55.000000, 60.000000)">
                    <g id="↳-social" transform="translate(0.000000, 58.000000)">
                        <path d="M188.5,0 C178.8365,0 171,7.8365 171,17.5 C171,24.913 175.613,31.2515 182.12125,33.80125 C181.97075,32.417 181.83075,30.289 182.18425,28.77525 C182.501,27.41025 184.2335,20.07775 184.2335,20.07775 C184.2335,20.07775 183.712,19.0295 183.712,17.479 C183.712,15.0465 185.12075,13.23 186.87775,13.23 C188.37225,13.23 189.09325,14.35 189.09325,15.694 C189.09325,17.1955 188.136,19.44075 187.64425,21.5215 C187.2295,23.26275 188.5175,24.682 190.23425,24.682 C193.34575,24.682 195.73625,21.4025 195.73625,16.6705 C195.73625,12.47925 192.7245,9.5515 188.4265,9.5515 C183.446,9.5515 180.5235,13.28425 180.5235,17.14475 C180.5235,18.648 181.10275,20.2615 181.82725,21.13825 C181.97075,21.3115 181.99,21.46375 181.948,21.6405 C181.815,22.1935 181.51925,23.38175 181.46325,23.625 C181.38625,23.94525 181.20775,24.0135 180.877,23.8595 C178.69125,22.84275 177.3245,19.64725 177.3245,17.08 C177.3245,11.55875 181.3355,6.489 188.88675,6.489 C194.9575,6.489 199.6755,10.815 199.6755,16.597 C199.6755,22.6275 195.87275,27.482 190.59475,27.482 C188.822,27.482 187.15425,26.5615 186.58375,25.473 C186.58375,25.473 185.70525,28.81375 185.4935,29.63275 C185.098,31.1535 184.0305,33.0575 183.31825,34.22125 C184.95625,34.727 186.69575,35 188.5,35 C198.1635,35 206,27.16525 206,17.5 C206,7.8365 198.1635,0 188.5,0" id="Fill-16"></path>
                    </g>
                </g>
            </g>
        </g>
    </g>
</svg>