<?xml version="1.0" encoding="UTF-8"?>
<svg width="55px" height="56px" viewBox="0 0 55 56" version="1.1" xmlns="http://www.w3.org/2000/svg" xmlns:xlink="http://www.w3.org/1999/xlink">
    <!-- Generator: sketchtool 55.2 (78181) - https://sketchapp.com -->
    <title>67B32466-B6E2-409E-B7BA-84BD05295756</title>
    <desc>Created with sketchtool.</desc>
    <g id="D---Recipe-Detail" stroke="none" stroke-width="1" fill="none" fill-rule="evenodd">
        <g id="D---Recipe-Detail---Icons" transform="translate(-735.000000, -796.000000)" fill="#DA291C" fill-rule="nonzero">
            <g id="•-Recipe-Numbers" transform="translate(0.000000, 750.000000)">
                <g id="Icon-/-Servings" transform="translate(735.000000, 46.000000)">
                    <path d="M19.7162025,53.4356589 C19.7536271,53.4319164 19.7915898,53.43 19.83,53.43 L21.34,53.43 C21.8922847,53.43 22.34,52.9822847 22.34,52.43 C22.08,45.83 21.49,30.01 21.49,25.72 C21.3273766,23.5171909 22.5128447,21.4347188 24.49,20.45 C25.58,19.76 26.24,19.35 26.24,17.66 L26.24,1.79 C26.24,1.16591823 26.7459182,0.66 27.37,0.66 C27.9940818,0.66 28.5,1.16591823 28.5,1.79 L28.5,17.67 C28.5825484,19.6536211 27.4836693,21.4981682 25.7,22.37 C24.3649428,22.9204454 23.5511097,24.2836158 23.7,25.72 C23.7,29.97 24.3,45.72 24.55,52.34 C24.5854074,53.2162909 24.2618546,54.0691119 23.6541073,54.7013956 C23.0463599,55.3336793 22.2070057,55.690715 21.33,55.6900011 L21.34,55.6900011 L19.9609817,55.6900011 C19.9115923,55.6965957 19.8611937,55.7 19.81,55.7 L19.83,55.69 C18.9529943,55.690715 18.1136401,55.3336793 17.5058927,54.7013956 C16.8981454,54.0691119 16.5745926,53.2162909 16.61,52.34 C16.81,47.21 17.46,30.12 17.46,25.72 C17.6088903,24.2836158 16.7950572,22.9204454 15.46,22.37 C13.6763307,21.4981682 12.5774516,19.6536211 12.66,17.67 L12.66,1.79 C12.66,1.16591823 13.1659182,0.66 13.79,0.66 C14.4140818,0.66 14.92,1.16591823 14.92,1.79 L14.92,17.67 C14.92,19.35 15.58,19.77 16.67,20.46 C18.6471553,21.4447188 19.8326234,23.5271909 19.67,25.73 C19.67,30.05 19.07,45.84 18.81,52.44 C18.81,52.9606544 19.2079009,53.3883741 19.7162025,53.4356589 Z M43.47,50.1 C42.9975494,50.0912697 42.5804184,49.7894914 42.4243175,49.3434889 C42.2682167,48.8974863 42.4061121,48.4014488 42.77,48.1 C48.3275392,43.7404648 51.7872138,37.2379959 52.297497,30.1930403 C52.8077803,23.1480847 50.3212813,16.21492 45.45,11.1 C45.1713328,10.8070422 45.0701249,10.3876709 45.1845002,9.99985917 C45.2988755,9.61204744 45.6114577,9.31471312 46.0045002,9.21985917 C46.3975426,9.12500522 46.8113328,9.24704222 47.09,9.54 C52.4125098,15.1188161 55.1308138,22.6863672 54.574694,30.3768179 C54.0185743,38.0672686 50.2397797,45.1649948 44.17,49.92 C43.9626652,50.0550169 43.716747,50.1182529 43.47,50.1 Z M18.56,17.05 C17.9359182,17.05 17.43,16.5440818 17.43,15.92 L17.34,1.79 C17.3373324,1.48857649 17.455207,1.19858087 17.6674129,0.984497014 C17.8796188,0.77041316 18.1685647,0.65 18.47,0.65 C19.0940818,0.65 19.6,1.15591823 19.6,1.78 L19.69,15.92 C19.6926676,16.2214235 19.574793,16.5114191 19.3625871,16.725503 C19.1503812,16.9395868 18.8614353,17.06 18.56,17.06 L18.56,17.05 Z M22.56,17.05 C22.2585647,17.05 21.9696188,16.9295868 21.7574129,16.715503 C21.545207,16.5014191 21.4273324,16.2114235 21.43,15.91 L21.52,1.77 C21.5254885,1.14982699 22.0298027,0.65 22.65,0.65 C22.9514353,0.65 23.2403812,0.77041316 23.4525871,0.984497014 C23.664793,1.19858087 23.7826676,1.48857649 23.78,1.79 L23.69,15.93 C23.6845115,16.550173 23.1801973,17.05 22.56,17.05 Z M37.12,55.69 L35.82,55.69 C34.0676323,55.69 32.6455106,54.272359 32.64,52.52 L32.54,1.13 C32.5461948,0.744656366 32.7483546,0.389040991 33.0762998,0.186605694 C33.404245,-0.0158296031 33.8127491,-0.0371672929 34.16,0.13 C34.53,0.28 43,4.48 43,15.92 C43,28.45 40.59,34.92 40,36.32 L40.56,52.41 C40.5754609,53.2261254 40.2576966,54.0133143 39.68,54.59 C39.006968,55.2826091 38.0856845,55.6784731 37.12,55.69 Z M34.81,3.2 L34.91,52.51 C34.91,53.0125791 35.3174209,53.42 35.82,53.42 L37.11,53.42 C37.4484464,53.3950635 37.7655922,53.2453992 38,53 C38.149052,52.8625418 38.2387202,52.6724451 38.25,52.47 L37.68,36.12 C37.6748007,35.9403862 37.7125105,35.762122 37.79,35.6 C37.79,35.54 40.67,29.24 40.67,15.9 C40.8560552,10.9739294 38.6787184,6.25512787 34.81,3.2 Z M13.5,51.7300069 C13.2880133,51.7307351 13.0800947,51.6718249 12.9,51.56 C5.81783399,47.1463747 1.1401902,39.7389675 0.199195428,31.4473035 C-0.741799342,23.1556394 2.15697923,14.8884081 8.07,9 C8.51458923,8.55817222 9.23317219,8.56041081 9.67499998,9.00500002 C10.1168278,9.44958924 10.1145892,10.1681722 9.67,10.61 C4.24629089,16.0095343 1.58723477,23.5914739 2.45035061,31.1958557 C3.31346645,38.8002374 7.60412793,45.5933672 14.1,49.64 C14.5294158,49.9066203 14.7295425,50.4259834 14.5900696,50.9118142 C14.4505966,51.3976451 14.0054515,51.7317626 13.5,51.7300069 Z" id="Combined-Shape"></path>
                </g>
            </g>
        </g>
    </g>
</svg>