<?xml version="1.0" encoding="UTF-8"?>
<svg width="42px" height="35px" viewBox="0 0 42 35" version="1.1" xmlns="http://www.w3.org/2000/svg" xmlns:xlink="http://www.w3.org/1999/xlink">
    <!-- Generator: Sketch 52.5 (67469) - http://www.bohemiancoding.com/sketch -->
    <title>Fill 1</title>
    <desc>Created with Sketch.</desc>
    <g id="D---Recipe-Landing" stroke="none" stroke-width="1" fill="none" fill-rule="evenodd">
        <g id="D---Recipe-Landing---SHARE" transform="translate(-703.000000, -1313.000000)" fill="#7F7F7F">
            <g id="Share-Pop-up" transform="translate(563.000000, 1195.000000)">
                <g id="components" transform="translate(55.000000, 60.000000)">
                    <g id="↳-social" transform="translate(0.000000, 58.000000)">
                        <path d="M127,4.144 C125.4565,4.84575 123.794,5.32175 122.05275,5.5335 C123.8325,4.4415 125.1975,2.71075 125.8415,0.6475 C124.1755,1.659 122.33275,2.394 120.36575,2.7895 C118.79775,1.07275 116.55775,0 114.078,0 C109.3215,0 105.4645,3.95675 105.4645,8.83575 C105.4645,9.52875 105.538,10.20075 105.685,10.84825 C98.524,10.479 92.17675,6.965 87.92425,1.6135 C87.18225,2.9225 86.757,4.4415 86.757,6.06025 C86.757,9.1245 88.2795,11.83 90.59125,13.41375 C89.18075,13.37 87.849,12.96925 86.68525,12.31125 L86.68525,12.41975 C86.68525,16.70375 89.65675,20.27375 93.60125,21.084 C92.8785,21.2905 92.11725,21.3955 91.3315,21.3955 C90.77675,21.3955 90.23425,21.343 89.7075,21.238 C90.80475,24.74675 93.98625,27.3035 97.7575,27.37175 C94.80875,29.74125 91.09175,31.15525 87.05625,31.15525 C86.3615,31.15525 85.67375,31.115 85,31.0345 C88.81325,33.537 93.34575,35 98.209,35 C114.0605,35 122.72475,21.539 122.72475,9.863 C122.72475,9.478 122.71775,9.09475 122.702,8.71675 C124.38725,7.47075 125.8485,5.91675 127,4.144" id="Fill-1"></path>
                    </g>
                </g>
            </g>
        </g>
    </g>
</svg>