<?xml version="1.0" encoding="utf-8"?>
<!-- Generator: Adobe Illustrator 23.0.1, SVG Export Plug-In . SVG Version: 6.00 Build 0)  -->
<svg version="1.1" id="Layer_1" xmlns="http://www.w3.org/2000/svg" xmlns:xlink="http://www.w3.org/1999/xlink" x="0px" y="0px"
	 viewBox="0 0 50 50" style="enable-background:new 0 0 50 50;" xml:space="preserve">
<style type="text/css">
	.st0{fill-rule:evenodd;clip-rule:evenodd;fill:#0A0A0A;}
</style>
<title>usda organic</title>
<desc>Created with Sketch.</desc>
<g id="STYLES">
	<g id="Icons" transform="translate(-241.000000, -272.000000)">
		<g id="usda-organic" transform="translate(241.000000, 272.000000)">
			<path id="Fill-1" class="st0" d="M11.4,29.9v2.9c0,0.4,0,1-0.6,1c-0.5,0-0.6-0.6-0.6-1v-2.9c0-0.4,0.1-0.9,0.6-0.9
				C11.4,28.9,11.4,29.4,11.4,29.9"/>
			<path id="Fill-3" class="st0" d="M15.4,29.1v1.7H16c0.5,0,0.6-0.4,0.6-0.9C16.6,29.1,16.2,29.1,15.4,29.1z M15.4,29.1v1.7H16
				c0.5,0,0.6-0.4,0.6-0.9C16.6,29.1,16.2,29.1,15.4,29.1z M15.4,29.1v1.7H16c0.5,0,0.6-0.4,0.6-0.9C16.6,29.1,16.2,29.1,15.4,29.1z
				 M26.4,29.1L26.4,29.1l-0.5,3.1h1L26.4,29.1z M26.4,29.1L26.4,29.1l-0.5,3.1h1L26.4,29.1z M15.4,29.1v1.7H16
				c0.5,0,0.6-0.4,0.6-0.9C16.6,29.1,16.2,29.1,15.4,29.1z M15.4,29.1v1.7H16c0.5,0,0.6-0.4,0.6-0.9C16.6,29.1,16.2,29.1,15.4,29.1z
				 M26.4,29.1l-0.5,3.1h1L26.4,29.1L26.4,29.1z M39.2,35c-1.5,0-2.1-0.8-2.1-2.2v-2.9c0-1.5,0.7-2.2,2.2-2.2c1.4,0,2.2,0.6,2.2,2
				v0.6h-1.6v-0.5c0-0.6-0.2-0.9-0.5-0.9c-0.5,0-0.6,0.3-0.6,0.7l0,3.5c0,0.4,0.2,0.6,0.6,0.6c0.6,0,0.6-0.6,0.6-1v-0.6h1.6v0.9
				C41.6,34.1,40.9,35,39.2,35z M34.6,34.8h1.6v-7h-1.6V34.8z M33.8,34.8h-1.7l-1.3-3.9l0,0l0.1,3.9h-1.6v-7h1.7l1.3,3.9h0l-0.2-3.9
				h1.6V34.8z M27.2,34.8L27,33.5h-1.3l-0.2,1.4h-1.6l1.5-7h2l1.5,7H27.2z M23.4,34.8h-1.1l-0.1-0.6h0c-0.3,0.6-0.7,0.8-1.4,0.8
				c-1.4,0-1.8-1-1.8-2.2v-2.9c0-1.5,0.7-2.2,2.2-2.2c1.4,0,2.2,0.6,2.2,2v0.5h-1.6v-0.4c0-0.6-0.1-0.9-0.5-0.9
				c-0.5,0-0.6,0.3-0.6,0.7v3.5c0,0.4,0.2,0.6,0.6,0.6c0.6,0,0.6-0.4,0.6-0.9v-0.6h-0.6V31h2.2V34.8z M18.5,34.8h-1.8
				c0-0.1-0.1-0.3-0.1-0.4c0-0.6,0-1.2,0-1.6c0-0.4-0.2-0.7-0.6-0.7h-0.5v2.8h-1.6v-7h2.4c1.3,0,2,0.5,2,1.9c0,0.8-0.2,1.3-0.9,1.6
				v0c0.5,0.1,0.8,0.4,0.8,0.9c0,0.6,0.1,1.8,0.1,2.2C18.3,34.6,18.4,34.7,18.5,34.8L18.5,34.8z M13,32.6c0,1.6-0.5,2.4-2.2,2.4
				c-1.7,0-2.2-0.8-2.2-2.4v-2.8c0-1.3,0.8-2.1,2.2-2.1s2.2,0.8,2.2,2.1V32.6z M3.4,25c0,11.9,9.7,21.6,21.6,21.6
				c11.9,0,21.6-9.7,21.6-21.6H3.4z M15.4,29.1v1.7H16c0.5,0,0.6-0.4,0.6-0.9C16.6,29.1,16.2,29.1,15.4,29.1z M26.4,29.1L26.4,29.1
				l-0.5,3.1h1L26.4,29.1z M26.4,29.1L26.4,29.1l-0.5,3.1h1L26.4,29.1z M15.4,29.1v1.7H16c0.5,0,0.6-0.4,0.6-0.9
				C16.6,29.1,16.2,29.1,15.4,29.1z M15.4,29.1v1.7H16c0.5,0,0.6-0.4,0.6-0.9C16.6,29.1,16.2,29.1,15.4,29.1z M26.4,29.1L26.4,29.1
				l-0.5,3.1h1L26.4,29.1z M26.4,29.1L26.4,29.1l-0.5,3.1h1L26.4,29.1z M15.4,29.1v1.7H16c0.5,0,0.6-0.4,0.6-0.9
				C16.6,29.1,16.2,29.1,15.4,29.1z M15.4,29.1v1.7H16c0.5,0,0.6-0.4,0.6-0.9C16.6,29.1,16.2,29.1,15.4,29.1z M15.4,29.1v1.7H16
				c0.5,0,0.6-0.4,0.6-0.9C16.6,29.1,16.2,29.1,15.4,29.1z"/>
			<path id="Fill-5" class="st0" d="M25,48C12.3,48,2,37.7,2,25C2,12.3,12.3,2,25,2s23,10.3,23,23C48,37.7,37.7,48,25,48 M42.7,7.3
				C38,2.6,31.7,0,25,0C11.2,0,0,11.2,0,25c0,6.7,2.6,13,7.3,17.7C12,47.4,18.3,50,25,50s13-2.6,17.7-7.3C47.4,38,50,31.7,50,25
				S47.4,12,42.7,7.3"/>
			<path id="Fill-7" class="st0" d="M15.8,13v7c0,0.4-0.2,0.9-0.7,0.9c-0.6,0-0.8-0.4-0.8-0.8v-7h-2.2v6.8c0,1.9,1.1,2.8,2.9,2.8
				c2.2,0,2.9-1.2,2.9-2.8V13H15.8z"/>
			<path id="Fill-9" class="st0" d="M23.6,17.6c-0.5-0.5-1.2-0.8-2-1.3c-0.4-0.3-0.7-0.6-0.7-1.1c0.1-0.4,0.3-0.7,0.8-0.6
				c0.7,0,0.7,0.8,0.7,1.3h2c0.1-1.8-0.9-3-2.8-3c-1.7,0-2.7,0.9-2.7,2.7c0,0.8,0.2,1.4,0.6,1.9c0.4,0.5,1,0.8,1.7,1.2
				c0.6,0.3,1.2,0.6,1.2,1.4c0,0.5-0.2,0.9-0.7,0.9c-0.7,0-0.9-0.5-0.9-1v-0.7h-2v1c0,1.2,0.8,2.4,2.9,2.4c1.8,0,2.8-1,2.8-2.8
				C24.4,18.7,24.1,18.1,23.6,17.6"/>
			<path id="Fill-11" class="st0" d="M27.5,20.7v-6c1.1,0,1.4,0.1,1.4,1.2V19C29,20.2,29,20.8,27.5,20.7 M30.2,13.5
				c-0.7-0.4-1.7-0.4-2.5-0.4h-2.4v9.3h2.9c0.7,0,1.4-0.1,1.9-0.4c0.6-0.4,0.9-1.1,0.9-2v-4.1C31.1,14.9,31,14,30.2,13.5"/>
			<path id="Fill-13" class="st0" d="M34.5,18.9l0.6-4.2h0l0.6,4.2H34.5z M36.4,13h-2.6l-2,9.3H34l0.3-1.8H36l0.3,1.8h2.2L36.4,13z"
				/>
		</g>
	</g>
</g>
</svg>
